<?xml version="1.0" encoding="utf-8"?>
<!-- Generator: Adobe Illustrator 25.0.0, SVG Export Plug-In . SVG Version: 6.00 Build 0)  -->
<svg version="1.1" id="Layer_1" xmlns="http://www.w3.org/2000/svg" xmlns:xlink="http://www.w3.org/1999/xlink" x="0px" y="0px"
	 viewBox="0 0 60.3 82.4" style="enable-background:new 0 0 60.3 82.4;" xml:space="preserve">
<style type="text/css">
	.st0{fill-rule:evenodd;clip-rule:evenodd;}
</style>
<g>
	<g>
		<path class="st0" d="M31.7,18.1c0.3,0.1,0.6,0.2,0.9,0.3c2.1,0.8,7.8,1.9,8.4,2c4.1,1,5.6,1.8,7.6,3.2c1.2,0.9,2.5,1.8,3.8,2.4
			c6.1,3,5.8,2,1.1,8.3c-0.7,1-0.6,0.6-1.7,2.8c-1.3,2.5-2.9,2.1-5,7.5c-0.2,0.6-0.6,1.1-1,1.5c-1.1,1.2-1.9,2.6-2.9,3.9
			c-0.8,1.1-0.7,0.5-2.2,3.1c-1.4,2.4-1.5,3-6.5,9.5c-1.1,1.4-1.4,1.2-2.3,2.9c-6.8,12.1-7.7,13.2-9.6,12.2c0,0-0.1-0.1-0.1-0.1
			c-1.5-2.7-2-6.5-2.3-7.4c-0.3-1.1-0.7-2.2-1-3.3c-0.1-0.4-0.2-0.8-0.3-1.2c-3.2-9.5-2.8-9.9-4.3-15c-0.3-0.9-0.6-1.9-0.9-2.8
			c-0.4-1.4-0.9-4.8-1.8-7.8c-1.4-4.8-1.1-6.3-2.1-8.2c-1.6-3-0.3-4-1.3-6.9c-1.8-5.4-2.2-5.3,0.1-6.2c1.5-0.6,3.1-1.2,4.7-1.4
			c2.5-0.3,9-0.1,9.3-0.1C25.1,17.4,25.1,16.4,31.7,18.1z M14.8,49.8c0,0.1,0.1,0.2,0.1,0.3c1.1,5.6,3.9,15.2,4,15.4
			c0.3,0.9,0.6,1.7,0.9,2.6c0.3,1,0.5,2,0.8,3c0.3,1,1.2,4.1,1.6,5.1c1.5,4,6.9-6.7,7.6-7.7c1.1-1.7,0.8-2.2,3.2-5.3
			c9.9-13.2,2.4-4.5,12.8-17.7c0.1-0.1,0.2-0.3,0.3-0.4c3.7-7.4,2.7-3.6,6.9-10.8c-7.1-4.9-6.5-5.3-16.6-7.7c-1.6-0.4-3.3-0.6-5-1.1
			c-3.8-1.1-4.4-1.3-5.2-1.3c-0.2,0-6.4-0.6-10-0.4c-2.5,0.1-4.5,0.9-6,1.1c-0.4,0.1-0.9,0-1.3,0.3C8.9,25.6,9,26,9.1,26.3
			c0.2-0.3,0.3-0.7,0.6-0.9c1.5-1.3,3.1,0,3,1.3C12.4,29,9.3,28.4,9.3,27c0-0.1,0-0.2-0.1-0.3c0,0-0.1,0-0.1,0
			c0.1,5.2,1.4,3.2,2.2,9.7c0.4,3.2,1.2,2.3,1.9,8.7C13.5,46.8,14,48.3,14.8,49.8z M8.2,23.7c0.9,0.1,1.7-0.1,2.5-0.4
			c1.8-0.8,5.9-1.1,7-0.8c-0.5,0.3-7.9,1.2-9.2,1.8c0,0.1,0,0.1,0,0.1c5.9-0.8,6.4-1.3,9-1.2c10.6,0.2,8.4,0,15.4,2.1
			c0.1,0,0.2,0,0.4,0c-0.2-0.2-0.5-0.1-0.6-0.5c6.6,1.2,0.6-0.5,10.5,2.1c4.3,1.1,6.7,5,10.4,6c0.2-0.2,1.7-1.7,2.1-2.5
			c-1-1.2-1.2-0.5-4.1-2.5c-0.2-0.2-0.5-0.3-0.7-0.5c-1-1.2-7.1-3.3-7.3-3.4c-0.3,0.5-0.2,1-0.7,1.4c0.2-0.5,0.3-1,0.5-1.5
			c-1.1-0.7-3-0.8-4.5-1.3c-1.6-0.5-1.9-0.2-2.8-0.4c1.4-0.8,9.9,2.2,11.7,3c0.1-0.4,0.2-0.7,0.2-1c0,0-0.1-0.1-0.2-0.2
			c-0.1,0.3-0.2,0.5-0.3,0.7c-0.2-0.2-0.1-0.4-0.1-0.6c0-0.3,0-0.5-0.4-0.6c-0.3,0.1-0.2,0.6-0.6,0.6c0.1-0.3,0.2-0.5,0.3-0.8
			c-0.1-0.1-0.2-0.1-0.3-0.2c-0.2,0.2-0.1,0.6-0.5,0.6c0.1-0.3,0.1-0.5,0.1-0.8c-0.2-0.1-0.4-0.1-0.5-0.2c-0.3,0.6-0.3,0.6-0.5,0.6
			c0-0.2,0.1-0.5,0.1-0.8c-0.2,0-0.3-0.1-0.5-0.1c-0.2,0.2-0.1,0.5-0.4,0.6c0-0.2,0-0.4,0.1-0.7c-6.4-2.2-7.4-1.7-10.9-2.8
			c-0.6-0.2-1.2-0.5-1.8-0.6c-0.8-0.2-1.7-0.4-2.5-0.5c-1.7-0.1-3.3-0.3-5-0.2c-0.6,0-1.2-0.1-1.8,0c-3.7,0.5-6.2-0.1-8.9,0
			c-2.4,0.1-5.2,1.3-5.7,2c1.7-0.4,4.2-2.4,8.5-1.2c1.8,0.5,3,0.4,4.3,0.4c0,0,0,0.1,0,0.1c-0.1,0-0.2,0.1-0.3,0.1
			c-4,0.2-6.4-1.7-10-0.1C6.9,21.3,7.3,20.9,8.2,23.7z M10.7,27.9c1.5-0.4,1.8-1.6,1.4-2.2c-0.8-1.1-2.8-0.4-2.7,0.8
			C9.5,27.2,10,27.7,10.7,27.9z M40.1,26.7c4.7,1.7,4,1.1,7.7,3.3C47.6,29.4,43.7,27,40.1,26.7z M33.6,25.3c2,0.4,4,0.8,6.1,1.2
			C37.7,25.7,35.7,25.5,33.6,25.3z M48.7,30.5C48.7,30.5,48.7,30.6,48.7,30.5c0.6,0.6,0.2,0.4,3.8,2.6c0.2,0.1,0.5,0.1,0.7-0.1
			C50.5,31.9,51.2,31.9,48.7,30.5z M53.9,27.9c-0.1,0.3-0.2,0.5-0.3,0.7c0.4,0.1,0.7,0.3,1.1,0.4c0.1-0.3,0.2-0.5,0.3-0.7
			c-0.2-0.1-0.3-0.1-0.4-0.2c-0.1,0.2-0.2,0.4-0.3,0.5C54.3,28,54.3,28,53.9,27.9z M48.4,25.6c0.5-0.7,0.4-0.8-0.2-1
			c-0.1,0.3-0.2,0.5-0.3,0.9C48.1,25.5,48.3,25.6,48.4,25.6z M56,29.9c0.2-0.6,0.1-0.8-0.4-1c-0.1,0.2-0.1,0.4-0.1,0.6
			C55.6,29.7,55.8,29.8,56,29.9z M52.8,28.3c0.5-0.6,0.5-0.8,0-0.9c-0.1,0.2-0.2,0.4-0.4,0.7C52.5,28.1,52.6,28.2,52.8,28.3z
			 M53.4,27.6c-0.1,0.3-0.2,0.5-0.3,0.8c0.2,0,0.3,0.1,0.4,0.1C53.7,27.8,53.7,27.8,53.4,27.6z M49.9,26.2c0.2,0.1,0.3,0.2,0.5,0.3
			c0.1-0.2,0.1-0.3,0.2-0.5c-0.2-0.1-0.3-0.2-0.5-0.3C50.1,25.9,50,26.1,49.9,26.2z M51.2,27.1c0.1-0.2,0.1-0.4,0.2-0.6
			c-0.2-0.1-0.3-0.2-0.5-0.2C50.7,26.7,50.7,26.7,51.2,27.1z M51.6,26.7c-0.3,0.5-0.3,0.5,0.1,0.8C52,27,52,26.9,51.6,26.7z
			 M52.2,27.9c0.5-0.3,0.4-1-0.1-0.8C52.3,27.3,51.8,27.6,52.2,27.9z M49.4,25.2c-0.1-0.1-0.3-0.1-0.4-0.2c-0.1,0.2-0.2,0.5-0.3,0.7
			C49.1,25.8,49.1,25.8,49.4,25.2z M49.3,25.9c0.2,0.1,0.3,0.1,0.4,0.2c0.2-0.5,0.2-0.5-0.2-0.7C49.5,25.6,49.4,25.7,49.3,25.9z
			 M55.2,28.5c-0.2,0.7-0.2,0.7,0.1,0.8C55.5,28.8,55.5,28.8,55.2,28.5z"/>
		<path class="st0" d="M14.8,49.8c0-0.4-0.1-0.8-0.1-1.1c-0.3-2.6,1.8-5.1,5.4-5.1c-2.4-1-2.4-2.2-2.9-3.6c0.4,0.1,0.6,0.2,0.9,0.3
			c0.3,0.1,0.6,0.1,0.9,0.2c-1-2.9,1.1-4.5-1.1-6.3c0,0,0-0.1,0-0.1c0.1-0.2,0.2-0.2,0.3-0.1c7.3,4.2,5.8,7.5,5.3,9.8
			c-0.9-0.5-1.8-0.1-2.7-0.2c1.8,0.6,2.7,1,3.6,2.8c1.2,2.5-1.1,5.1-2.2,3.9c-0.4-0.5,0-0.7,0.2-0.9c0-0.8-1.2-0.7-1.1-0.1
			c0.2,1.9,1.9,1.7-2.7,2.4c-0.3,0-0.4,0-0.4-0.4c0.2-1.6,0.5-2.1-0.4-1.9c-0.8,1.7,0.1,0.5,0,1.8c-0.6,0.6-1.5,0.3-2-0.2
			c-0.3-0.3-0.5-0.6-0.7-0.9C14.8,50,14.8,49.9,14.8,49.8z M16.8,50.2c-0.1,0-0.1,0.1-0.3,0.1c0.1,0.1,0.3,0.2,0.4,0.3
			c0,0,0.1,0,0.1-0.1C16.9,50.4,16.8,50.3,16.8,50.2c0.1-0.3,0-0.5-0.4-0.7C16.3,49.8,16.5,50,16.8,50.2z M17.2,48.7
			c-0.1-0.1-0.1-0.3-0.3-0.5c-0.1,0.4-0.2,0.7,0.2,1C17.1,49,17.2,48.8,17.2,48.7c0.1,0.2,0.1,0.4,0.2,0.6c0.2-0.4,0.1-0.7,0.1-1
			c0-0.1-0.1-0.1-0.2-0.2C17.2,48.4,17.2,48.5,17.2,48.7z M15.7,46.6c0.1-0.2,0.2-0.4,0.3-0.6c0,0-0.1,0-0.1,0
			C15.8,46.2,15.7,46.4,15.7,46.6c-2,2,0.7,6,1.4,4.4c-0.2-0.2-0.4-0.3-0.6-0.6c-0.9-1.2,0.2-2.7,1.1-2.5c0.8,0.2,1.1,0.4,0.8,3
			c0.8,0,1,0.1,1.2-0.2c1.1-1.7,1.2-1.8,0.9-1.9c-0.2,0.2-0.3,0.3-0.5,0.5c0,0,0,0-0.1-0.1c0.2-0.3,0.4-0.7,0.7-1c0,0-0.1,0-0.1-0.1
			c-0.4,0.4-0.7,0.8-1.1,1.3c0-0.3,0-0.3,1.5-1.8c1.1-0.2,1.1-0.4,2.2-2.3c-0.2-0.1-0.3-0.2-0.5-0.3c-0.9,1.3-0.7,1.4-1.5,2.1
			c0.5-0.7,0.9-1.4,1.4-2.2c-0.2-0.1-0.3-0.2-0.4-0.3c-0.9,1.4-0.6,1-1.1,1.4l0,0c0.3-0.5,0.6-1,0.9-1.5c-0.3-0.2-0.5-0.3-0.8-0.1
			l0,0c-0.2-0.4-0.4-0.5-0.7-0.2c-0.1,0.1-0.2,0.4-0.4,0.2l0,0c0.1-0.1,0.2-0.3,0.3-0.4c-0.5-0.2-0.6,0.1-0.9,0.4c0,0,0,0-0.1,0
			c0.1-0.1,0.1-0.3,0.2-0.4c-0.8-0.2-1,0.3-1.6,0.9l0,0c0.1-0.2,0.2-0.5,0.4-0.7c-0.6,0-0.6,0.2-1.4,1.2l0,0
			c0.1-0.3,0.2-0.5,0.4-0.9C16.1,45.4,16.4,46.1,15.7,46.6z M19.2,40.3c1.1,0.1,2,0.1,3,0.2c-0.1-0.2-0.2-0.4-0.3-0.6
			c-0.3-0.7-0.7-0.7-2.6-0.8c-0.1,0-0.2,0-0.3,0.1C18.9,39.6,18.9,40,19.2,40.3z M21.4,39c-0.5-1.1-1.5-1.8-2.5-1.7
			c0,0.5-0.1,1-0.1,1.5C19.7,38.9,20.6,38.9,21.4,39z M19.2,35.7c0,0.5-0.1,0.9-0.1,1.3c0.5,0.2,1,0.4,1.6,0.6
			C20.2,36.8,19.7,36.3,19.2,35.7z M24.2,47.7c-0.7,0.9-1.1,1.8-1.8,2.5c0.3,0.2,0.3,0.2,0.5-0.1C24,48.7,24.3,48.5,24.2,47.7z
			 M18.7,42.3c0.2,0.3,1,0.8,1.4,0.6c0.3-0.1,0.6-0.3,0.9-0.5C20.2,42.1,19.5,42,18.7,42.3z M23.1,49c1-1.6,1.2-1.7,0.8-2.3
			c-0.4,0.6-0.7,1.1-1.1,1.6C22.9,48.5,23,48.7,23.1,49z M23.1,45.7c-0.4,0.6-0.8,1.3-1.2,1.9c0.4,0.3,0.3,0.4,1.4-1.5
			C23.5,45.9,23.4,45.7,23.1,45.7z M21,41c0.2,0.8,0.9,1.5,1.7,1.6C22.4,41.8,21.8,41.4,21,41z M19.6,40.9c0.4,0.8,1.1,1.1,1.8,1.2
			c0,0-0.7-1-0.7-1.1C20.3,41,20,41,19.6,40.9z M22,37.8c-0.2,0.9-0.1,1.8,0.3,2c0-0.2,0.1-0.4,0.1-0.6C22.6,38.7,22.5,38.2,22,37.8
			z M21.7,38.6c0.1-1.4,0.3-1.1-0.8-2.2C21.1,37.3,21,38.1,21.7,38.6z M22.8,48.2c0.4-0.6,0.7-1.1,1.1-1.7c-0.1-0.1-0.2-0.2-0.3-0.3
			C22.5,47.9,22.3,47.9,22.8,48.2z M17.8,40.9c0.2,1.3,0.7,1.2,1.6,1C18.9,41.6,18.4,41.2,17.8,40.9z M19.3,35.2
			C19.3,35.2,19.3,35.2,19.3,35.2c0.4,0.7,0.9,1.2,1.4,1.8c0,0,0.1,0,0.1-0.1C20.7,36.7,20.9,36,19.3,35.2z M22.7,38.9
			c-0.3,1.1-0.3,1.7,0.1,2C23,40.3,23.2,39.6,22.7,38.9z M22.2,43c0,0,0-0.1,0-0.1c-0.8-0.4-1.4-0.4-2,0.2C20.9,43,21.6,43,22.2,43z
			 M23.2,40.3c-0.3,0.6-0.3,1.2,0,1.9C23.4,41.5,23.3,40.9,23.2,40.3z M19.7,41.6c-0.3-0.7-0.6-0.9-1.4-0.8
			C18.7,41.2,19.1,41.4,19.7,41.6z M19.7,51.1c0.5-0.2,0.6-0.7,0.9-1c0.1-0.1,0.2-0.3,0.1-0.5C20.2,50,19.9,50.4,19.7,51.1z
			 M22.4,41.2C22.4,41.2,22.4,41.2,22.4,41.2c-0.3-0.7-1-0.6-1.6-0.6C20.7,40.6,21.5,40.9,22.4,41.2z M21.2,48.6
			c0.4-0.1,0.5-0.2,0.3-0.7C21.2,48,21.2,48.3,21.2,48.6z M17,49.8c0-0.4-0.2-0.6-0.4-0.9C16.4,49.2,16.5,49.3,17,49.8z M24,49.1
			C24,49.1,23.9,49.1,24,49.1c-0.3,0.3-0.6,0.6-0.8,0.9c0,0,0.1,0,0.1,0.1C23.6,49.8,23.9,49.5,24,49.1z M20.9,50.2
			c0,0-0.1-0.1-0.1-0.1c-0.2,0.3-0.4,0.5-0.6,0.8C20.6,50.8,20.7,50.4,20.9,50.2z M20.7,50.8c0.4,0,0.4,0,0.3-0.4
			C20.9,50.5,20.8,50.7,20.7,50.8z M22.6,49.5c0.2-0.3,0.3-0.5,0.1-0.7C22.6,48.9,22.4,49.1,22.6,49.5z M22.1,48.6
			c0.2-0.2,0.4-0.3,0.1-0.6C22.1,48.2,22.1,48.4,22.1,48.6z M17.8,48.4c0,0-0.1,0-0.1,0c0,0.2-0.1,0.5,0.2,0.7
			C17.9,48.8,17.8,48.6,17.8,48.4z M18.1,49.1c0,0,0.1,0,0.1,0c0-0.2-0.1-0.3-0.1-0.5c0,0-0.1,0-0.1,0C18.1,48.8,18.1,49,18.1,49.1z
			 M21.8,48.5c0.2-0.4,0.2-0.4,0-0.7C21.8,48.1,21.6,48.3,21.8,48.5z M22.5,48.2c0,0.3-0.1,0.4-0.1,0.6
			C22.5,48.7,22.8,48.6,22.5,48.2z M20.7,48.7c0.1,0,0.1,0,0.2,0c0-0.2,0.2-0.3,0-0.6C20.8,48.4,20.8,48.6,20.7,48.7z"/>
		<path class="st0" d="M33.9,38.7c-0.1,0.1-0.2,0.1-0.4,0.2c0.2,0.2,0.4,0.4,0.6,0.2c0.7-0.3,0.1-1.3-0.1-1.5
			c-0.3-0.4-0.4-0.4-1.6-1.5c0.4-0.3,0.6-0.5,1-0.7c0.3-0.2,2-1.2,2.4-1.4c0.5-0.2,0.4,0.5,0.7,1.4c0.5,1.5,1.3,1.5,1.5,0.3
			c-0.3-0.1-0.5-0.1-0.6-0.3c-0.5-0.5,0.2-1.4,1.1-1.3c2,0.2,2.4,1.1,3.2,2.3c1.4,1.8-0.1,6.2-3,6.9c-6.7,1.7-7.9-5.1-5.9-5.3
			C33.5,38.1,33.6,38.2,33.9,38.7z M38.2,37.2c-0.3,1.8-0.6,3.6-1,5.4c0,0,0,0,0,0c0.3-1.8,0.5-3.6,0.8-5.4
			c-0.4-0.1-0.8-0.3-1.2-0.4c-0.4,1.9-0.7,3.7-1.1,5.6c0-0.8,0.1-1.2,0.9-5.7c0-0.1,0-0.3-0.2-0.3c-0.3,1.2-0.5,2.5-0.8,3.7
			c-0.1-0.4,0.5-3.4,0.6-3.7c0.1-0.6-0.2-1-0.3-1.6c-0.2,0.9-0.4,1.7-0.6,2.6c-0.2,0.7-0.2,1.4-0.5,2.1c-0.4,0.8-1.2,1.1-1.9,0.6
			c-0.1-0.1-0.2-0.2-0.3-0.2c0.1,0.4,0.5,1.6,0.7,1.8c1.2,1,1.5,1.4,2.3,1.4c0.2,0,2.2,0,2.7-0.2c0.2-2,0.4-3.9,0.6-5.9
			C38.6,37.2,38.4,37.2,38.2,37.2z M39.8,35.3C39.8,35.3,39.9,35.3,39.8,35.3c-0.1,2.5-0.4,4.9-0.6,7.4c0.4-0.1,0.6-0.3,0.7-0.7
			c0.5-7.4,0.8-6.4-0.3-7.2c0,0-0.1,0-0.1,0.1c0.1,0.3,0.1,0.5,0.2,0.8C39.7,35.5,39.7,35.4,39.8,35.3z M39.6,36.2
			C39,36.8,39,37,38.5,41.5c0,0.2-0.1,1.2,0,1.5c0.2-0.1,0.3-0.1,0.5-0.2C39.2,40.6,39.4,38.5,39.6,36.2z M40,42.1
			c0.3-0.1,0.4-0.3,0.4-0.5c0.4-6.1,0.5-5.9,0.1-6C40.4,37.8,40.2,39.9,40,42.1z M41,36.1c-0.1,1.8-0.3,3.7-0.4,5.6
			c0.3-0.3,0.4-0.6,0.5-0.9C41.2,36.2,41.4,36.3,41,36.1z M41.4,36.7c-0.1,1.4-0.2,2.8-0.2,4.2C41.7,40.2,41.9,37.4,41.4,36.7z
			 M35,38.6c0,0,0.1,0,0.1,0c0.2-1.3,0.5-2.5,0.7-3.8c-0.4,0-0.4,0.1-0.9,3.2C34.9,38.2,34.9,38.4,35,38.6z M34.7,37.9
			c0.2-0.9,0.3-1.8,0.5-2.6c-0.3,0.1-0.3,0-0.7,2.2C34.4,37.6,34.5,37.8,34.7,37.9z M34.3,37.3c0.1-0.6,0.2-1.2,0.3-1.8
			c-0.3,0-0.4,0.2-0.4,0.4C34.2,36.4,33.9,36.9,34.3,37.3z M33.9,36.9c0.1-0.4,0.1-0.7,0.2-1.1C33.5,36.1,33.2,36.6,33.9,36.9z
			 M32.6,39.6c0,0,0.1,0,0.1,0c0.5-0.8,0.4-0.5,0.4-1c-0.1,0-0.2,0-0.3,0c0.2,0.3-0.1,0.4-0.2,0.6C32.6,39.3,32.6,39.5,32.6,39.6z
			 M33.7,39.5c0,0-0.1,0-0.1-0.1c-0.1,0.3-0.2,0.5-0.4,0.8C33.6,40.2,33.6,40.1,33.7,39.5z M38.5,35.5c0.3,0,0.6,0,0.9,0.1
			c-0.1-0.2-0.1-0.4-0.2-0.5C39,35.1,38.8,35.3,38.5,35.5z M33.8,40.4c0.3-0.3,0.3-0.5,0.2-0.9C33.8,39.8,33.6,40,33.8,40.4z
			 M39.1,34.8c-0.4-0.2-0.5-0.1-0.8,0.5C38.5,35.1,38.8,35,39.1,34.8z M39.2,36.5c0-0.4-0.2-0.5-0.8-0.5
			C38.6,36.3,38.9,36.3,39.2,36.5z M32.9,40c0,0,0.1,0,0.1,0.1c0.1-0.3,0.3-0.5,0.4-0.8c0,0-0.1,0-0.1-0.1
			C33,39.4,32.9,39.6,32.9,40z M38.6,35.7c0.2,0.1,0.5,0.3,0.9,0.1C39.1,35.6,38.9,35.6,38.6,35.7z M38.4,36.3
			c0.3,0.5,0.3,0.5,0.7,0.2C38.8,36.5,38.6,36.4,38.4,36.3z M34.6,39.9c0.3-0.3,0.3-0.5,0.2-0.9C34.5,39.3,34.6,39.6,34.6,39.9z
			 M37.9,35.3c0.2-0.2,0.4-0.4,0.4-0.7C38,34.8,37.8,34.9,37.9,35.3z M34.2,40.3c0.3-0.3,0.3-0.3,0-0.8C34.2,39.8,34.2,40,34.2,40.3
			z M38.5,37c-0.3-0.4-0.3-0.4-0.5,0C38.1,37,38.3,37,38.5,37z M42,38.4c0,0-0.1,0-0.1,0c0,0.2,0,0.4,0,0.6c0,0,0.1,0,0.1,0
			C42,38.8,42,38.6,42,38.4z"/>
		<path class="st0" d="M47.9,41c-0.4,0.7-1.5,0.9-2.7,0.7c0.3,1.4,0,3.6-1.4,5.6c-1.5,2.1-2.8,1.7-3.7,3.6c-0.5-0.4,0,0.3-0.7-2.2
			c-0.8-2.6,1.4-5.7,2.4-7.3c1.6-2.5,0.5-3.6,1.5-3.4c1.4,0.3,2.8,0.8,3.5,2.3C47.1,40.6,47.3,41,47.9,41z M40.3,45.4
			c2.3-1.6,1.5,0,2.6-2.4c-1.2,0.1-2.4,0.1-2.8,2.5C40.2,45.4,40.3,45.4,40.3,45.4c-0.4,0.9-0.6,0.6-0.6,2.3c1.1-0.8,2-1.6,2.3-3
			C41.4,45,40.9,45.2,40.3,45.4z M44.1,46c0.7-2.5,0.8-1.7-0.7-3.8c-0.3,1.7-0.2,0.6,0,2.6C43.5,45.2,43.7,45.6,44.1,46z M43.1,47.4
			c1.5-1.9,0.5-0.6,0-3.4c0-0.1-0.1-0.2-0.1-0.4C42.1,45,42.4,46.1,43.1,47.4z M42.1,45.5c-0.6,0.8-0.7,2.1-0.1,3
			c0.3-0.3,0.6-0.6,0.8-0.8C42.6,46.9,42.4,46.2,42.1,45.5z M43.6,40.5c0.2,0.6-0.1,1.1,0.1,1.7c0.2,0.5,0.6,0.9,1,1.4
			C45.1,41.3,44,40.8,43.6,40.5z M41.3,43.1c1.4-0.3,2-0.2,2-1.5C42.2,41.4,41.8,41.9,41.3,43.1z M41,47C41,46.9,41,46.9,41,47
			c-1.6,1.3-1.4,0.8-1,2.8c0,0,0.1,0,0.1,0C40.4,48.8,40.7,47.9,41,47z M41.4,47.2c-0.4,0.8-0.8,1.6-0.9,2.6
			c0.5-0.4,0.9-0.7,1.3-1.1C41.6,48.2,41.5,47.7,41.4,47.2z M42.3,41.4c0.4-0.1,0.7-0.1,1-0.2c0.1-0.4,0-0.8-0.2-1.2
			C42.8,40.5,42.6,40.9,42.3,41.4z M43.5,38.6c0,0-0.1,0.1-0.1,0.1c0.2,0.6,0.3,1.2,0.9,1.7c0-0.3,0-0.6,0-0.9
			C44.1,39.2,43.8,38.9,43.5,38.6z M44.8,39.4c0.3,0.6,0.5,0.7,1.4,0.3C45.8,39.2,45.8,39.2,44.8,39.4z M43.8,38.4
			c0.7,1,0.7,0.9,1.5,0.6C44.9,38.7,44.5,38.5,43.8,38.4z M45.2,41c0.1-0.6-0.2-0.9-0.6-1.1C44.5,40.6,44.6,40.7,45.2,41z
			 M46.6,40.8c-0.3-0.8-0.3-0.9-1-0.6C45.9,40.5,46.2,40.6,46.6,40.8z M46.6,41.1c-0.4-0.2-0.8-0.4-1.2-0.6
			C45.7,41.2,45.8,41.3,46.6,41.1z"/>
		<path class="st0" d="M19.5,26.6c-0.5-0.1-1,0.7-0.3,0.9c1.3,0.3,1.4,0,1.9,0.5c-0.4,1-0.6,2.2-1.1,3.2c-0.7-0.1-1.1-0.6-1.7-0.7
			c-0.2,0.3-0.4,0.6-0.2,1c0.1,0.3,0.2,0.3,0.5,0.1c0.3-0.2,0.5-0.2,0.5,0.2c0.4,2.1-4.9,1.9-5.9-0.9c-0.7-2-0.6-5,1.4-6.1
			c0.8-0.5,1.7-1,2.7-0.9c1.3,0,2.4,0.7,3.2,1.7C21.5,26.9,19.2,27.9,19.5,26.6z M18.9,26.1c0.1,0.1,0.3,0.1,0.5,0.2
			c-0.1-0.3-0.2-0.5-0.5-0.5C19,25.9,19,26,18.9,26.1c-0.1,0-0.2-0.4-0.5-0.1c0.2,0.3,0.2,0.3,0.5,0.3C19,26.2,19,26.2,18.9,26.1z
			 M19.9,25.5c-0.2-0.2-0.1-0.6-0.5-0.6c0,0.4,0,0.7,0.4,0.9C19.8,25.6,19.8,25.5,19.9,25.5c0.1,0.3,0.3,0.7,0.5,1.1
			C20.6,25.8,20,25.2,19.9,25.5z M18.8,24.9c0.3,0.6,0.1,0.4,0.5,0.7c-0.1-0.4-0.1-0.8-0.4-1.1C18.9,24.7,18.8,24.8,18.8,24.9
			c-0.1-0.1-0.1-0.2-0.2-0.4c-0.1-0.2-0.2-0.2-0.4-0.1c-0.1-0.1-0.2-0.2-0.4-0.3c0,0.3,0,0.4,0,0.6c-0.1-0.1-0.1-0.3-0.2-0.4
			c-0.1-0.1-0.2-0.2-0.4-0.1c0,0.1,0,0.3,0,0.4c-0.2,0-0.1-0.5-0.5-0.3c0,0.2,0.1,0.4,0.1,0.6c-0.1-0.2-0.2-0.4-0.4-0.7
			c-0.1,0.4-0.1,0.1,0.3,1.6l0,0c-0.1-0.3-0.3-0.5-0.4-0.8c-0.1-0.2-0.1-0.5-0.3-0.6c-0.1,0.2-0.2-0.2,0.5,2c0,0-0.1,0-0.1,0
			c-0.2-0.6-0.4-1.3-0.7-1.9c-0.5-0.1-0.3,0.4-0.1,1.2l0,0c-0.4-1-0.3-0.7-0.5-0.9c-0.1,0.1-0.2,0.2-0.3,0.4
			c0.2,0.6,0.4,1.2,0.6,1.8l0,0c-0.7-1.4-0.5-1-0.7-1.6c-0.7,0.4,0,0.7,0.5,2.7l0,0c-0.4-0.7-0.1-0.1-0.9-2.1
			c-0.6,0.4-0.3,0.7,0.1,1.7l0,0c-0.2-0.3-0.4-0.6-0.6-0.9c-0.4,0.4-0.2,0.5,0.1,1.5l0,0c-0.1-0.2-0.3-0.4-0.5-0.7
			c-0.3,0.3-0.1,0.5,0.1,0.9l0,0c-0.1-0.1-0.2-0.1-0.3-0.2c-0.4,2.2,1.1,4,2.4,4.5c1.3,0.4,3.3,0.2,3.1-0.9
			c-0.4,1.8-3.9-0.5-1.8-1.6c0.9-0.4,1.2-0.1,2.4,0.4c-0.1-0.3-0.1-0.5-0.2-0.7c0.1,0.1,0.2,0.3,0.3,0.4c0,0,0.1,0,0.1,0
			c0-0.9,0-0.5-0.1-1.1c0.1,0.1,0.1,0.3,0.3,0.5c0.2-0.8-0.3-1.3-0.4-1.9c0-0.1-0.1-0.1-0.3-0.3c0.1,0.4,0.2,0.7,0.2,1.1
			c-0.4-0.9-0.4-1.1-0.9-1.1c0.4,1.2,0.2,0.5,0.8,2.4c-0.3-0.7-0.1,0-0.9-2.5c-0.1,0-0.2,0.1-0.3,0.1l0,0c-0.4-0.3-0.7-0.7-0.7-1.3
			c0.5,0.2,0.2-0.7-0.2-1.7c0.2,0.4,0.4,0.8,0.6,1.3c0.3,0,0.2-0.2,0-1.1c0.2,0.3,0.3,0.6,0.5,1c0.3,0,0.2-0.1-0.1-1.3
			c0.5,1.1,0.4,1.1,0.6,1.2C18.8,25.4,18.8,25.1,18.8,24.9z M19.6,27.8c0.2,0.5,0.3,0.9,0.5,1.3c0,0,0.1,0,0.1,0
			c-0.1-0.3-0.1-0.5-0.2-0.8c0,0,0,0,0.1,0c0.1,0.1,0.2,0.3,0.3,0.4c0.1-0.3,0.1-0.5,0.2-0.7C20.3,27.9,20,27.9,19.6,27.8z
			 M17.3,32.2c0.5,0.3,0.9,0.2,1.2-0.1C18.1,32.2,17.7,31.7,17.3,32.2z M17.9,26.3c0.4,0.4,0.5,0.4,0.9,0.2
			C18.3,26.1,18.1,25.9,17.9,26.3z M16.6,31.5c0.4,0.3,0.1,0.4,1.1-0.1c0,0,0-0.1,0-0.1C17.3,31.4,17,31.4,16.6,31.5z M18.6,26.9
			c-0.3-0.1-0.6-0.2-0.9-0.3C17.9,27,18.2,27.1,18.6,26.9z M17.6,31c-0.4,0-0.6,0-1,0C17,31.3,17,31.3,17.6,31z M17,32
			c0.3,0,0.5-0.1,0.8-0.4C17.4,31.7,17.2,31.8,17,32z M20,26.3c-0.2-0.1-0.3-0.2-0.6-0.4C19.5,26.2,19.7,26.4,20,26.3z M17.5,30.9
			c0,0,0-0.1,0-0.1c-0.2,0-0.3-0.2-0.6,0C17.1,30.8,17.3,30.8,17.5,30.9z M18.1,27.2C18.1,27.2,18.1,27.3,18.1,27.2
			c0.1,0.1,0.2,0.1,0.4,0.2c0,0,0-0.1,0-0.1C18.3,27.2,18.2,27.2,18.1,27.2z M17.4,30.4c0,0,0,0.1,0,0.1c0.1,0,0.3,0.1,0.3-0.2
			C17.6,30.4,17.5,30.4,17.4,30.4z"/>
		<path class="st0" d="M32.3,26.5c0.2-0.3,0.5-0.3,0.7-0.2c1,0.2,1.9,0.3,2.8,0.8c0.8,0.4,1.5,0.9,2,1.8c0.1,0.2,0.2,0.5,0.4,0.8
			c0.7-0.4,1.6-0.4,2-1.3c0.6,0.8,0.8,4.6-2.2,5.5c-0.4,0.1-0.8,0-1.1,0c-0.1,0-0.2,0-0.3,0c-2.5-0.1-3.5-2.7-3.6-5.1
			C32.8,27.9,32.8,27.1,32.3,26.5z M35.9,32.7c0.2-0.1,0.4-0.2,0.6-0.3c0-0.2-0.1-0.4-0.3-0.5c-0.6-0.3-1.3-0.3-2-0.1
			c0.5,0.4,0.8,0.7,1.2,1C35.6,32.8,35.8,32.7,35.9,32.7c0,0.1-0.1,0.1-0.1,0.2c0.3,0.1,0.5,0.2,0.8,0.1c0-0.2-0.1-0.4-0.4-0.4
			C36.2,32.7,36.1,32.7,35.9,32.7z M33.5,30.2c0,0.5,0.2,0.9,0.5,1.3c0,0.1,0.2,0.1,0.3,0.1c0.7-0.1,1.3,0,2,0.1
			C36.1,31,36.1,30.2,33.5,30.2z M33.4,30c1.4,0.2,0.9,0.1,2.2,0.4c-0.4-1.1-0.9-1.5-2.3-1.5C33.3,29.2,33.4,29.6,33.4,30z
			 M36.3,27.9c-0.2,2.6-0.4,2.5,0.2,3.3c0.3-0.6,0.4-1.3,0.6-1.9c0.1-0.5-0.1-0.8-0.4-1.1C36.6,28.1,36.4,28,36.3,27.9z M35.1,27.1
			c0,1-0.1,2,0.8,2.7c0-0.5,0.1-1,0.1-1.5C36,27.6,35.9,27.4,35.1,27.1z M33.3,26.7c0.6,0.6,1.1,1.2,1.6,1.8c0,0,0.1,0,0.1-0.1
			C34.6,26.6,35,26.9,33.3,26.7z M38.7,29.9c-1,0.4-0.7,0.8-0.6,2.3C38.5,31.5,38.9,30.8,38.7,29.9z M33.3,27.1c0,0-0.1,0-0.1,0.1
			c0.1,0.5,0.1,0.9,0.2,1.4c0.5,0.1,0.9,0.2,1.4,0.3c-0.1-0.2-0.1-0.2-0.2-0.3C34.1,28.1,33.7,27.6,33.3,27.1z M38.4,32.3
			c1.5-0.2,1.5-0.2,1.8-1.5C39.4,31.2,38.8,31.6,38.4,32.3z M39,29.7c-0.1,0.6-0.1,1.1-0.1,1.6c0.4-0.7,0.9-1.3,1.1-2.1
			c-0.1,0-0.2,0.1-0.3,0.1C39.4,29.4,39.2,29.6,39,29.7z M37.1,33.1c0.7-0.5,0.9-1.3,0.5-2.1C37.3,31.6,37.2,32.3,37.1,33.1z
			 M36.7,32c0.1,0,0.1,0,0.2,0c0-1.9,1.3-1.8,0.5-2.7c-0.2,0.7-0.5,1.4-0.7,2.1C36.6,31.6,36.7,31.8,36.7,32z M40.1,29.4
			c-0.3,0.6-0.6,1.2-0.9,1.8C40.3,30.6,40.4,30.5,40.1,29.4z M37.6,33.2c0.8-0.1,1.3-0.4,1.8-0.9C38.7,32.5,38,32.5,37.6,33.2z"/>
		<path class="st0" d="M25.9,36.9c-2.7-1-2.9-1-3.2-1.5c-0.5-0.9-1-1.8-0.9-2.8c0-0.8-1-1.1-0.2-3.2c0.3-0.8,0.8-1.4,1.5-1.9
			c2-1.2,1.6-1.1,3.9-1.1c1.3,0,1.9-0.1,3.1,0.6c2.3,1.2,3.6,4.7,1.4,7.6C30.7,35.7,30.5,36.7,25.9,36.9z M25.3,26.8
			c0.2,0,0.4,0,0.6,0C25.6,26.6,25.4,26.6,25.3,26.8c-0.2-0.1-0.4,0-0.6,0.3C24.9,26.9,25.1,26.8,25.3,26.8z M28.4,26.9
			c-4,0-5.1,0.8-6,2c-1.1,1.5,0,2.4,0,2.8c0,0.8,0.3,1.6,0.4,2.3c0.4,2.4,8,3.9,8.9-1.3C32.3,29.6,30.8,27.5,28.4,26.9z M23.1,35.2
			c0.3,0.5,0.4,0.6,0.8,0.5C23.7,35.5,23.4,35.3,23.1,35.2z M32.1,32.6c0.1,0,0.1,0,0.2,0c0-0.3,0-0.5,0-0.8c0,0-0.1,0-0.1,0
			C32.1,32,32.1,32.3,32.1,32.6z M26,36.5C26,36.5,26,36.6,26,36.5c0.3,0.1,0.6,0.1,0.9,0.1c0,0,0-0.1,0-0.1
			C26.6,36.5,26.3,36.5,26,36.5z M21.9,31.7c0,0,0.1-0.1,0.1-0.1c-0.1-0.1,0-0.3-0.3-0.2C21.8,31.5,21.9,31.6,21.9,31.7z"/>
		<path class="st0" d="M29.1,38c1.9,1.2,2.8,5.7-1.1,8c-0.7,0.4-1.5,0.7-2.2,1c-0.6,0.2-0.6,0.6-2-9.1c-0.1-0.3,0.1-0.5,0.4-0.6
			C25.6,36.8,27.4,37,29.1,38z M26.1,39.3L26.1,39.3c-0.2-0.1-0.2,0.1-0.2,0.2c-0.1,0-0.3-0.1-0.4-0.2C25.6,39,26,39,26.4,39
			c-0.1-1,0.5-0.7,0.9-0.6c-0.3,0.3-0.5,0.5-0.7,0.7c1.9,1.8,1.1,6.1-0.4,4.9c-0.1-0.1-0.4-0.2-0.5-0.2c-0.5,0.3-0.3,0.7,0,2
			c1.1-0.3,2-0.7,2.8-1.3c3.1-2.3,0.7-8.3-4.1-6.3c0.1,1.3,0.4,2.5,0.7,2.7c0.2-1.3,0.2-1.5,0.5-1.7c0,0.2,0.1,0.3-0.1,0.5
			c-0.1,0.1-0.2,0.4,0,0.6c0.1,0,0.1,0.2,0.1,0.2c-0.3,0.3,0.1,0.4,0.1,0.6c-0.1-0.1-0.2-0.1-0.4-0.3c1.2,3.1,1.1,3.1,1.5,2.9
			c-1.1-2.1-0.7-1.5-1.1-2.4c1.1,1.8,0.8,1.2,1.2,2.3c0,0,0,0,0,0c0.5-0.6,0.5-1.4,0.5-2.2c0-0.2-0.2-0.3-0.4-0.3
			c0,0.2,0.1,0.4,0.1,0.5c-0.4-0.4-0.6-1.4-0.7-2C26.4,39.4,26.3,39.1,26.1,39.3z M25.1,41.9c-0.4-0.1-0.2,0.3-0.1,0.6
			c0.3,1.1,0.2,0.9,0.3,1.1c0.1,0,0.2-0.1,0.3-0.1c0-0.1,0-0.3,0-0.4c0.1,0.2,0.3,0.3,0.5,0.6c-0.3-1-0.8-2.2-1.1-2.5
			C24.9,41.5,25.1,41.7,25.1,41.9z M25.7,46c0.1,0.3,0,0.2,0.2,0.4c1.9-0.4,4.1-1.8,4.3-3.7c0.7-5.1-2.9-5-3.9-5.2
			c-0.7-0.2-1.3,0-2,0.1c-0.2,0-0.2,0.2-0.1,0.4c0.9-0.2,1.1-0.5,3.1-0.1c2.3,0.4,3.8,4.2,1.4,6.6C27.8,45.5,26.6,45.7,25.7,46z
			 M27.1,40.8c0-0.7,0-0.8-0.4-1C26.9,40.1,27,40.4,27.1,40.8z"/>
		<path class="st0" d="M22.4,66.7c4-0.9,2.9-0.7,3.1,1.4c0.1,0.7,1,0.8,1-0.1c-0.2-0.1,0,0-0.5-0.3c0.1-0.1,0.2-0.3,0.3-0.4
			c0.1-0.1,0.3-0.2,0.5-0.2c0.6,0,1.3,0.5,1.4,1.1c1.4,4.9-5.6,6.4-6.9,3.2c-0.5-1.1-0.6-2.3,0.2-3.2c0.6-0.6,1.5-0.1,1,0.7
			c0.2,0.3,0.8,0.1,0.6-0.4C22.9,68,22.7,67.4,22.4,66.7z M21.9,68.7c0,0.3-0.4,0.5-0.1,0.9C22.1,68.7,22.1,68.9,21.9,68.7
			c0.1-0.1,0.1-0.2,0.2-0.3c0,0-0.1-0.1-0.1-0.1c-0.1,0.1-0.2,0.2-0.4,0.3c0,0,0,0.1,0.1,0.1C21.8,68.7,21.8,68.7,21.9,68.7z
			 M27.4,69.4c-0.3,0.5-0.4,1-0.4,1.5c-0.4,0.1-0.2,0.5-0.3,0.7c0.5-0.2,0.7-0.2,1.2-2.2c0.1-0.5,0.4-1.1-0.3-1.6
			c0,0.1,0.1,0.8,0.1,0.9c-0.6,2.4-0.6,2.1-0.7,2.4c0,0,0,0-0.1,0C27.1,70.9,27,71.1,27.4,69.4z M25.6,72.3c0.6,0,1,0,1.5-2.6
			c-0.4,0.2-0.3-0.1-0.9,1.9c0-0.6,0.4-1.2,0.3-1.8C26.2,70,26.2,70.3,25.6,72.3c0-1.3,0.9-2.3,0.5-2.8c-0.3,0.9-0.6,1.7-0.9,2.5
			c-0.1-0.9,1.1-2.6,0.4-2.7c-0.4,1.1-0.7,2.2-1.1,3.3C25,72.6,25.2,72.5,25.6,72.3z M24.1,72c0,0-0.1,0-0.1,0
			c1.1-3.5,1.5-3.5,1.1-4.3c-0.5,1.4-1,2.7-1.6,4c-0.1-0.3-0.1-0.1,1.6-4.3c0.1-0.2,0.1-0.4-0.1-0.7c-0.4,1.1-0.9,2.1-1.3,3.1
			c0.3-1.3,1-2.4,1-3.1c-0.3,0-1,2.4-1.1,2.7c-0.3,1.3-1.7,1.1-2.2-0.1c-0.5,1.4,0.7,3.5,2.9,3.2c1.3-3.9,1.2-3.7,0.9-3.8
			C24.9,69.8,24.5,70.9,24.1,72z M22.9,70c0-0.2,0-0.3,0-0.5c0,0-0.1,0-0.1,0c-0.1,0.1-0.2,0.3-0.2,0.4c0-0.2-0.1-0.3-0.1-0.5
			c-0.1,0.2-0.2,0.3-0.2,0.4c0,0,0,0-0.1,0c0-0.2,0-0.3,0.1-0.5c0,0-0.1,0-0.1,0c-0.1,0.2-0.2,0.4-0.3,0.6
			C22.2,70,22.5,70.2,22.9,70z M26.7,68.8c0,0-0.1,0.1-0.1,0.1c0.1,0.2,0.1,0.3,0.2,0.5c0.3-0.1,0.6-0.2,0.7-0.5
			c-0.1-0.2-0.2-0.4-0.5-0.4c0,0.4,0,0.2,0.3,0.6c0,0,0,0-0.1,0C26.9,69,26.8,68.9,26.7,68.8z M23,67.4c0.1-0.1,0.2-0.2,0.3-0.4
			c0,0.3-0.4,0.5,0,0.8c0.1-0.3,0.2-0.6,0.3-1c-0.3,0.1-0.6,0.2-0.8,0.2C22.9,67.2,23,67.3,23,67.4z M24.3,66.9c0,0-0.1,0-0.1-0.1
			c-0.8,1.8-0.8,1.7-0.6,1.9C23.8,68.1,24.1,67.5,24.3,66.9z M28.2,69.3c0,0-0.1,0-0.1,0c-0.1,0.4-0.2,0.8-0.3,1.3c0,0,0.1,0,0.1,0
			C28,70.2,28.1,69.8,28.2,69.3z M26.9,67.9c0,0.4,0.3,0.5,0.5,0.7C27.5,68.1,27.5,68.1,26.9,67.9z M26.6,67.5
			c0.4,0.3,0.5,0.3,0.8,0.2C27.2,67.5,26.9,67.5,26.6,67.5z M23.6,67.5c0,0,0.1,0,0.1,0.1c-0.1-0.3,0.2-0.4,0-0.7
			C23.7,67,23.7,67.3,23.6,67.5z M23.1,69.8c0,0,0.1,0,0.1,0c0.1-0.1,0.2-0.3,0.2-0.4c0,0-0.1,0-0.1,0
			C23.2,69.5,23.1,69.7,23.1,69.8z M25.8,68.9c0,0,0,0.1-0.1,0.1c0.1,0.1,0.2,0.1,0.2,0.2c0,0,0-0.1,0.1-0.1
			C26,69,25.9,69,25.8,68.9z M26.4,69.4c0,0,0.1,0,0.1-0.1c-0.1-0.1-0.1-0.2-0.2-0.3c0,0-0.1,0-0.1,0.1
			C26.3,69.2,26.3,69.3,26.4,69.4z"/>
		<path class="st0" d="M29.1,55.3c-2.2-1.2-2.5-5.1-1.9-6.6c0.3-0.7,0.7-1.5,1.1-2.2c0.1-0.1,0.2-0.3,0.4-0.3
			c2.7-1.6,3.5-0.4,4.8-0.5c0.7,0,2.3,0.8,2.7,1c2.6,1.4,2.3,4.4,1,7C36.1,55.8,32.7,57.2,29.1,55.3z M31.9,55.5
			c1.4,0,2.8,0.3,4.3-1.4c1.1-1.3,1.9-4.8,0.7-6.1c-1.7-2-4.6-1.9-5.9-2.1c-1-0.1-1.7,0.3-2.3,1c-0.5,0.5-0.8,1.1-0.9,1.9
			c-0.2,1.1-0.4,2.1-0.1,3.2C28.3,53.9,30,55,31.9,55.5z M30.8,55.5c0,0,0,0.1,0,0.1c0.6,0.2,1.2,0.3,1.9,0.2
			C32.1,55.8,31.5,55.6,30.8,55.5z M28.8,54.6C28.8,54.6,28.7,54.7,28.8,54.6c0.1,0.2,0.3,0.3,0.5,0.4c0,0,0-0.1,0-0.1
			C29.1,54.8,29,54.7,28.8,54.6z M31.6,45.6C31.6,45.6,31.6,45.7,31.6,45.6c0.2,0.1,0.4,0.1,0.6,0.1c0,0,0-0.1,0-0.1
			C32,45.7,31.8,45.7,31.6,45.6z"/>
		<path class="st0" d="M26.1,66.6c-0.6-0.9-1.7-1.3-2.1-2.3c-2,1-3.1,1.4-3.1,2.8c0,0,0,0.1-0.1,0.2c-0.3-0.1-1.1-1.5-1.3-2.2
			c-0.3-1,0.5-2.9,2.8-3.6c0.8-0.3,1.7-0.4,2.6-0.6c0.8-0.2,1.9,2.1,1.6,3.9C26.4,65.7,26.7,66.4,26.1,66.6z M24.4,63.3
			c0.4-0.8,0.8-0.9,0.5-2c-0.7,0.4-1,1.3-0.8,2.2C24.2,63.4,24.3,63.4,24.4,63.3c-0.1,0.5-0.6,0.5,0.1,1.3c0.6-1.3,0.7-1.1,0.4-1.8
			C24.8,63,24.6,63.2,24.4,63.3z M24,61.5c-1,0.2-1.9,0.3-2.7,1c1.2,0.2,1.5,0.4,2.3-0.2C23.8,62.2,23.8,61.8,24,61.5z M22.4,62.9
			c-1-0.2-1.3-0.3-1.6-0.1c-0.5,0.4-0.8,0.9-0.9,1.6C20.7,63.9,21.5,63.4,22.4,62.9z M22.8,63.1c-1.2,0.3-1.5,1.1-1.1,1.7
			c0.3-0.2,0.6-0.3,0.9-0.5C22.6,63.9,22.7,63.5,22.8,63.1z M25.3,62.7c0,0.9,0.2,1.4,1,1.4c-0.1-0.4-0.1-0.7-0.2-1
			C25.8,62.9,25.6,62.8,25.3,62.7z M20.4,66.2c-0.2-0.9,0.2-1.5,0.5-2.2c-0.4,0.2-1.1,0.7-1.1,1.1C19.9,65.4,20,65.8,20.4,66.2z
			 M20.7,66c0.7-0.5,0.8-0.8,0.7-1.9C20.8,64.6,20.6,65.2,20.7,66z M23.5,62.7c-0.6,0.3-0.8,0.9-0.7,1.5
			C23.6,63.9,23.6,63.9,23.5,62.7z M25.5,64.1c0.1,0.6,0.2,1.1,0.5,1.5c0.1-0.4,0.1-0.8,0.2-1.2C26,64.3,25.8,64.2,25.5,64.1z
			 M25.3,61.4c-0.1,1.1-0.1,1.2,0.7,1.4C26,62.3,25.7,61.7,25.3,61.4z M25.7,65.6c-0.1-0.4-0.2-0.6-0.3-0.9c-0.1-0.3,0-0.6-0.3-0.9
			c-0.1,0.4-0.2,0.7-0.3,1C25.1,65.1,25.3,65.3,25.7,65.6z"/>
		<path class="st0" d="M26.3,57.7c-0.2,0.5-0.4,1.1-0.8,1.6c-1.2,1.8-4.8,2.6-6.6,1.1c-0.9-0.8-0.9-1.2-1.4-3.3
			c-0.3-1.4-0.8-1.2,1-3.8c0.3-0.4,0.6-0.7,1.1-0.8c1.3-0.5,3.4-0.5,3.8-0.2C25.2,53.3,26.6,53.6,26.3,57.7z M20.6,60.6
			c1.6,0.4,4.3-0.5,4.8-2.3c0.2-0.8,0.6-3.3-0.2-4.2c-1.3-1.4-1.7-2-5.5-1.3c-0.2,0-0.3,0.1-0.4,0.2c-1.1,1.2-1.7,1.7-1.5,2.7
			C18.3,57.9,18.3,60.5,20.6,60.6z M25.8,57.8C25.8,57.8,25.9,57.8,25.8,57.8c0.1-0.3,0.2-0.6,0.2-0.9c0,0,0,0-0.1,0
			C25.9,57.2,25.9,57.5,25.8,57.8z"/>
		<path class="st0" d="M27.9,63.3c-0.1,0.4,0,0.9,0.1,1.3c0.1,0.2,0.1,0.4,0.1,0.6c0.2,0.6-0.7,0.8-0.8,0.2c-0.1-0.5-0.1-1-0.2-1.5
			c-0.1-1,0.4-0.4-0.6-1.8c-0.6-0.9,0.1-3.2,1.4-4.4c2.5-2.2,4.7-0.2,7.4-1.4c0.5-0.2,1.1,0.4,0.5,1c-0.6,0.6-1.3,0.9-2.1,1.1
			c-1.8,0.4-3.4,0.5-4,3.1c-0.1,0.5-0.3,0.8-0.8,1.1c-0.4,0.2-0.6,0.6-1,0.9C28,63.4,27.9,63.3,27.9,63.3z M29.2,61.1L29.2,61.1
			c0.1,0,0.2,0,0.3,0c0.1-0.7-0.2-1.5,0.1-2.3c0,0.6,0,1.1,0,1.7c0.4-0.7,0.2-1.3,0.4-1.9c0,0.3,0,0.7,0,1c0.5-0.2,0.3-0.1,0.7-1.6
			c0,0,0.1,0,0.1,0c-0.1,0.3-0.1,0.7-0.2,1.1c0.2-0.2,0.3-0.3,0.5-0.4l0,0c0.6-0.2,0.6-0.6,0.9-1.3c0,0,0,0,0.1,0
			c-0.1,0.3-0.1,0.6-0.2,0.9c0.4,0,0.3-0.1,0.8-1c0,0,0.1,0,0.1,0c-0.1,0.3-0.2,0.5-0.4,0.8c0.7-0.1,0.6-0.8,1.1-1.2
			c-0.1,0.3-0.3,0.6-0.4,0.9c0.5,0,0.7-0.3,0.8-1c-1.9-0.1-5.9-1.2-7.3,4.2c-0.2,0.8,0.6,0.9,1.4,1.2c0-0.3,0-0.5,0.1-0.8
			c0,0,0,0,0.1,0c0,0.2,0,0.5,0.1,0.7c0.5,0,0.4-0.2,0.3-1.3c0.3,0.3,0,0.7,0.4,1c0-0.5-0.2-1,0-1.5c0.1,0.5,0.1,0.9,0.2,1.3
			C29.3,61.5,29.3,61.5,29.2,61.1z M34.5,57.7c0.5-0.1,0.7-0.5,0.8-1C34.7,56.8,34.6,57.3,34.5,57.7z M33.8,57.9
			c0.6-0.1,0.5-0.7,0.7-1C34,57,34,57.5,33.8,57.9z M27.7,65.5c0.1-0.5,0-1.1-0.3-1.5C27.5,64.5,27.4,65,27.7,65.5z M35.7,56.7
			c0,0-0.1,0-0.1-0.1c-0.1,0.2-0.2,0.4-0.3,0.5C35.6,57.1,35.8,56.9,35.7,56.7z M27.2,62.5c0.4,0.3,0.4,0.3,0.7,0.2
			C27.7,62.7,27.5,62.6,27.2,62.5z"/>
		<path class="st0" d="M15,40.2c-3.6-0.9-1.7-5.7,1.2-4.3c1.8,0.9,1.8,2.6,0.6,3.9C16.4,40.4,15.8,40.4,15,40.2z M13.7,37.4
			c0.1-0.2,0.3-0.4,0.4-0.5c1.4-1.5,4,1,1.9,2.3c-1.1,0.7-2.3-0.4-2.4-1.5c-0.4,0.9,0,1.6,0.8,1.9c1.3,0.6,1.8,0.6,2.5-0.6
			c0,0,0-0.1,0.1-0.1c0.4-1,0.5-2.2-0.7-2.7C15.1,35.7,14.2,35.8,13.7,37.4z M14.3,37.3c-0.7,0.7,1.1,2.1,1.7,1.3
			C17,37.5,15.5,36.2,14.3,37.3z"/>
		<path class="st0" d="M16.9,34.1c0,0.1,0.1,0.2,0.2,0.3c-0.6,0.5-0.9,1.1-2.3,1c-0.5,0-1.1-0.2-1.6,0.1c-3.3-2.4-1.9-4.3-2.6-5.9
			c0.3-0.3,0.2-0.2,1.5,0.7c1.3,0.9,1.8,2.4,1.6,3.8C15.1,33.5,15.8,34,16.9,34.1z M12.9,34.8c0-0.1,0-0.2,0-0.2
			c-0.7-1.7-0.6-1-1.2-1.4c0.2,0,0.3,0,0.4,0c-0.2-0.8-0.3-1-0.9-1.1C11.2,33,12.1,34.3,12.9,34.8z M13.2,34.7
			c0.4-0.7,0.3-1.8-0.1-2.4C12.6,33.5,12.6,33.9,13.2,34.7z M16.6,34.4c-1-0.3-0.1-0.1-1.8-0.3c-0.5-0.1-0.8,0.2-1.1,0.6
			c0.7,0,1.2-0.3,2.1-0.1C16,34.8,16.2,34.7,16.6,34.4z M12.5,31.1c-0.3,1.1-0.5,1.3,0,2.2C13.1,32.2,13.4,31.9,12.5,31.1z
			 M11.6,30.3c0.1,0.6,0.2,1.1,0.6,1.7C12.4,30.9,12.5,30.8,11.6,30.3z M15.9,35c-0.9-0.3-1.6-0.2-2,0.1
			C14.6,35.1,15.2,35.3,15.9,35z M11.2,31.8c0.2,0.1,0.4,0.2,0.6,0.3c-0.2-0.6-0.3-1.1-0.5-1.6c0,0-0.1,0-0.1,0
			C11.2,30.9,11.2,31.3,11.2,31.8z"/>
		<path class="st0" d="M49.6,35.6c-0.2,0.9-0.7,1.7-1.5,2.3c-1.5,1.4-4.6,0.1-4.9-2.1C42.6,30.7,50.7,31.3,49.6,35.6z M49.2,35.7
			c0-0.4,0.3-2.2-1.1-2.7c-1.1-0.4-1.7-0.8-2.7-0.4C40.4,35.1,46.8,41.7,49.2,35.7z"/>
		<path class="st0" d="M36.2,44.7c-0.8,1-2.7,1.2-3.9,0.3c-0.7-0.5-2.2-1.7-1.3-1.9C34.2,42.1,34.3,44.3,36.2,44.7z M34.2,45
			c0.4,0.1,0.9,0.2,1.4-0.2c-0.6-0.1-1.1-0.1-1.7-0.2C34,44.8,34.1,45,34.2,45c-0.8-0.4-1-0.7-1.8-1c0.3,0.8,0.9,1.1,1.6,1.2
			C34.1,45.3,34.2,45.2,34.2,45z M32.3,43.8c0.6,0.5,1.3,0.5,1.9,0.1C33.4,43.1,33.6,43.3,32.3,43.8z M32.9,43.2
			c-0.6-0.2-1.1-0.1-1.7,0.2C31.9,43.7,32.4,43.7,32.9,43.2z M33.9,44.3c0.4,0.3,0.7,0.2,1.2,0.3C34.7,44.1,34.6,44.1,33.9,44.3z
			 M31.4,43.8c0.2,0.3,0.4,0.6,0.9,0.7C32,44.1,31.8,43.8,31.4,43.8z"/>
		<path class="st0" d="M45,30.7c0,0.7-0.4,1.8-1.3,2.2c-2,0.8-4-1.8-2.1-3.4C42.6,28.7,45,29.3,45,30.7z M42.1,29.6
			c-0.7,0.4-1.7,2.2,0.6,2.9c0.9,0.3,2-0.6,1.9-1.5C44.6,29.4,42.7,29.3,42.1,29.6z"/>
		<path class="st0" d="M21.5,25.8c0.8-1.3,1.8-1.9,3.4-1.3c0.4,0.1,0.8,0.3,1.3,0.4c0.2,0.1,0.4,0,0.6,0.1c0,0.1,0,0.1,0,0.2
			c-0.6,0.4-1.1,0.8-1.7,1.1C23.5,26.8,22,26.4,21.5,25.8z M24.4,26.1c-0.6-0.7-1.4-0.8-2.2-0.2C22.9,26.2,23.6,26.2,24.4,26.1z
			 M25.9,25.4c0,0,0-0.1-0.1-0.1c-0.6,0-1.2,0.1-1.8,0.1c0,0,0,0.1,0,0.1c0.3,0.2,0.6,0.4,0.9,0.6C25.2,25.8,25.5,25.6,25.9,25.4z
			 M25.8,25c-0.1-0.1-0.2-0.1-0.2-0.1c-1.3-0.4-1.5-0.6-2.1,0.3C24.3,25.1,25,25.1,25.8,25z M23.8,24.6c-0.8-0.1-1.3,0.4-1.7,1
			C22.8,25.5,23.3,25.2,23.8,24.6z"/>
		<path class="st0" d="M17.2,42.7c-0.2,1-1.2,1.8-2.1,1.7c-1-0.1-1.8-1.2-1.6-2c0.2-1,1.3-1.7,2.3-1.5
			C16.7,40.9,17.4,41.9,17.2,42.7z M15.1,44.1c0.7,0.1,1.3-0.1,1.5-1.2c0.3-2.2-2.5-2.1-2.7-0.5C13.7,43.1,14.3,43.9,15.1,44.1z"/>
		<path class="st0" d="M28.6,64c0.2-0.8,0.9-1.4,1.7-1.1c3.1,1-0.5,4.5-1.6,2C28.6,64.6,28.6,64.3,28.6,64z M30,63.2
			c-0.5-0.1-1,0.2-1.1,0.7c-0.1,0.7,0.3,1.3,0.9,1.4c0.4,0.1,0.9-0.5,1-0.9C30.9,63.9,30.5,63.3,30,63.2z"/>
		<path class="st0" d="M24.6,52.3c-1-0.5-0.9-2.1,0.4-2.5C27.7,49.1,27.3,53.7,24.6,52.3z M25.7,50.3c-1.2-0.5-1.9,1.3-0.8,1.8
			C26,52.5,27,50.8,25.7,50.3L25.7,50.3z"/>
		<path class="st0" d="M32.6,59.6c1.7,0.3,1.3,3.3-0.8,2.9C30.2,62.3,30.2,59.1,32.6,59.6z M31.3,60.1c-0.3,0.3-0.4,1-0.3,1.4
			c0.3,0.6,1.3,0.9,1.7,0.5c0.3-0.4,0.5-0.8,0.4-1.3C32.9,59.8,31.7,59.7,31.3,60.1z"/>
		<path class="st0" d="M38,44.2c1,0.2,1.3,1.1,1.2,1.7c-0.1,0.8-0.9,1.3-1.6,1.2C35.5,46.7,36.4,43.9,38,44.2z M38.1,44.6
			c-0.5,0-0.9-0.1-1.2,0.3c-0.5,0.9-0.1,1.8,0.9,1.8c0.6,0,1-0.4,1-1C38.6,44.6,38.6,44.8,38.1,44.6z"/>
		<path class="st0" d="M38.6,49.9c1.2,1.2-0.2,1.5,0.3,2.4c0.3,0.6,0.1,1.1-0.6,1.6c0.1-0.8,0.4-1,0.2-1.6c-0.1-0.2-0.1-0.6,0-0.9
			c0.3-0.6,0-0.8-0.1-1.5C38.5,49.9,38.5,49.9,38.6,49.9z"/>
		<path class="st0" d="M32.3,35.8c-0.6-0.1-0.3-1.4,0.4-1.8c0.2-0.2,0.5-0.3,0.4-0.6c0-0.1,0.1-0.2,0.1-0.2c0.1,0,0.2,0.1,0.3,0.1
			c0.2,0.3,0.1,0.8-0.2,1.1c-0.1,0.1-0.2,0.2-0.3,0.2C32.6,34.9,32.3,35.2,32.3,35.8z"/>
		<path class="st0" d="M34.2,60.9c-0.9-1.2,0.7-2.5,1.2-2.9c0,0.1,0.1,0.2,0.1,0.3c-0.1,0.2-0.2,0.5-0.4,0.6
			C34.3,59.6,34.4,60.3,34.2,60.9z"/>
		<path class="st0" d="M49.7,36.3c1-1.9-0.5-2,0.3-3c0.1,0,0.2,0,0.3,0.1c0,0.4-0.2,0.7,0.2,1.4c0.3,0.5,0,1.2-0.5,1.5
			C49.9,36.3,49.9,36.3,49.7,36.3z"/>
		<path class="st0" d="M21.5,35.2c-0.1,0-0.2-0.1-0.2-0.1c0-0.4-0.4-0.6-0.7-0.8c-0.8-0.6-0.4-0.8-0.3-2.1c0.5,0,0.6,0.1,0.4,0.5
			c-0.4,1-0.3,0.7,0.2,1.3C21.5,34.6,21.6,34.8,21.5,35.2z"/>
		<path class="st0" d="M26.5,54.3c1-0.1,0.9,0.5,1,1.1c0.1,1,0.9,0.5,1.2,0.6c-0.2,0.2-1.1,0.8-1.5,0C26.9,55.5,27.3,54.9,26.5,54.3
			z"/>
		<path class="st0" d="M29.4,37.1c0.7-0.3,1.4,0,1.5,0.7c0.1,0.4,0.2,0.7,0.6,0.7c-0.4,0.3-0.8,0.2-1-0.2c-0.1-0.4,0-1.1-0.8-0.9
			C29.5,37.4,29.4,37.4,29.4,37.1z"/>
		<path class="st0" d="M20.2,61.8c-1,0.9-1.7,0.4-1.7,0.1c-0.1-0.6-0.5-0.5-0.6-0.9c0.3-0.2,0.5,0,0.7,0.3c0.4,0.7,0.5,0.7,1.2,0.4
			C20,61.7,20.1,61.6,20.2,61.8z"/>
		<path class="st0" d="M16.7,53.6c1-0.9,0.9-1,1.2-0.8c-0.5,1.1-1.6,1.2-1.7,0.7c-0.1-0.3-0.2-0.4-0.5-0.6c0.1-0.1,0.1-0.2,0.2-0.3
			C16.3,52.8,16.6,53,16.7,53.6z"/>
		<path class="st0" d="M23.1,76.3c-0.4,0-0.4-0.4-0.7-0.6c0.1-0.2,0.2-0.5,0.3-0.8c-0.2-0.2-0.4-0.4-0.6-0.6
			c0.1-0.1,0.2-0.2,0.3-0.2c0.5,0.4,0.9,0.8,0.6,1.5C23,75.8,23.1,76,23.1,76.3z"/>
		<path class="st0" d="M36.2,55.6c0.3-0.7,1.3-0.4,1.5-1.3c0-0.1,0.2-0.2,0.2-0.2c0.3,1.2-0.7,1.4-1.2,1.7
			C36.5,55.8,36.4,55.7,36.2,55.6z"/>
		<path class="st0" d="M29.4,25.9c0.2-0.1,0.4-0.1,0.6-0.2c0.1,0.3,0,0.4-0.2,0.4c-0.2,0.1-0.4,0.1-0.6,0.1c0,0-0.1,0-0.1,0
			c-0.2-0.2-0.4-0.4-0.7-0.4c-0.2-0.1-0.5,0.1-0.8,0.1C27.8,25,28.8,25.2,29.4,25.9z"/>
		<path class="st0" d="M23.5,73.9c-0.3,0-0.5,0-0.8,0.1c0.5-0.6,1-0.5,1.6,0.3c0.2-0.1,0.4-0.3,0.7-0.4c0,0.1,0.1,0.2,0.1,0.2
			C24.6,74.7,24.1,75.1,23.5,73.9z"/>
		<path class="st0" d="M30.1,66.3c-1.2,1.3-1.2-0.4-1.8,0.2c-0.1,0.1-0.2,0.1-0.4,0.1c-0.1-0.5,0.5-1,1-0.6c0.1,0.1,0.2,0.1,0.2,0.2
			c0.2,0.2,0.4,0.3,0.6,0.1C29.8,66.3,29.9,66.3,30.1,66.3z"/>
		<path class="st0" d="M42.2,33.8c-0.3,0.7-0.4,0.6-1.7-0.1c-0.2-0.1-0.3,0.4-0.6,0.1c0.3-0.5,0.4-0.5,0.9-0.3
			C41.5,33.8,41.5,33.8,42.2,33.8z"/>
		<path class="st0" d="M26.7,58.6c0-0.1-0.1-0.1-0.1-0.1c0.1-0.3,0-0.5-0.1-0.8c-0.1-0.7,0.5-1,0.8-0.7c0,0,0.1,0.1,0.1,0.2
			c-0.3,0.2-0.6,0.2-0.5,0.6C27,58,27.1,58.4,26.7,58.6z"/>
		<path class="st0" d="M25.8,49.4c-0.1-1.1,0-0.6-0.5-1.2c-0.2-0.3-0.2-0.4,0-0.6C26,48.4,26.6,48.8,25.8,49.4z"/>
		<path class="st0" d="M46.2,30.2c0.7,0.3,0.8,0.8,0.3,1.2c-0.1,0.1-0.2,0.2-0.3,0.2c-0.3,0.1-0.4-0.1-0.3-0.3
			c0.1-0.2,0.2-0.3,0.3-0.4C46.1,30.7,46.1,30.5,46.2,30.2z"/>
		<path class="st0" d="M49.7,37.3c0.8,0.6-0.5,0.5-0.7,1.6c-0.1-0.1-0.2-0.2-0.1-0.2C49.2,37.6,49.3,37.7,49.7,37.3z"/>
		<path class="st0" d="M29.2,68.7c-0.1,0-0.2-0.1-0.2-0.1c0-0.4-0.3-0.6-0.4-1c-0.1-0.4,0-0.5,0.4-0.5
			C29.4,68.5,29.3,67.9,29.2,68.7z"/>
		<path class="st0" d="M18.1,36.7c-0.8-0.7-1.4-1-0.7-1.8c0.1,0.1,0.2,0.2,0.1,0.3c-0.1,0.4,0.1,0.6,0.4,0.8
			C18.3,36.2,18.3,36.4,18.1,36.7z"/>
		<path class="st0" d="M14.4,46.6c-1.1-0.2,0.1-0.9-0.6-1.7C14.8,45,14,45.6,14.4,46.6z"/>
		<path class="st0" d="M24.2,45.5c-0.4-0.2-0.4-0.8-0.9-0.9c0.1-0.2,0.1-0.3,0.2-0.5C23.9,44.1,24.3,44.9,24.2,45.5z"/>
		<path class="st0" d="M18.8,19.2c2.2,0,2-0.1,4-0.2c1.5-0.1,2.9-0.1,4.4,0.2c1.1,0.2,1.8,0,4.4,0.6c4.6,1.1,4.1,1.5,6,1.6
			c1,0,2.7,0.5,3.1,0.7c-0.2,0.4-0.5-0.1-2.1-0.4c-0.5-0.1-1-0.1-1.4-0.1c-2.5,0.1-5-1.4-9.2-1.9c-1.2-0.1-2.4-0.1-3.5-0.2
			c-3.2-0.3-4.6,0.3-5.6-0.1C18.8,19.2,18.8,19.2,18.8,19.2z"/>
		<path class="st0" d="M28,23c-0.1-0.7-0.2-1.3-0.3-1.8C28,21.8,28.3,22.3,28,23c1.2,0.5,2.3,0.9,3.6,1.1c-1.2,0.3-2.7-0.7-5-1.2
			c-1.9-0.4-7-0.1-7.9-0.2c-0.1,0-0.2-0.1-0.3-0.2c0.2-0.1,0.3-0.3,0.8-0.2C22.1,22.7,24.1,21.9,28,23z"/>
		<path class="st0" d="M8.3,21c0.3,0.2,0.2-0.3,0.5,2.3c0,0,0,0.1-0.1,0.2c-0.2-0.4-0.3-0.8-0.4-1.1c-0.1-0.4-0.1-0.8-0.2-1.2
			C8.3,21.1,8.3,21,8.3,21z"/>
		<path class="st0" d="M9.1,20.7c0.1,0.8,0.3,1.5,0.4,2.2c-0.4-0.4-0.4-1-0.5-1.5C8.9,21,8.9,21,9.1,20.7z"/>
		<path class="st0" d="M52.7,31.6c0.4-0.6,0.8-1.3,1.2-1.9c0.1,0.3,0.2,0.2-1.1,2C52.8,31.6,52.8,31.6,52.7,31.6z"/>
		<path class="st0" d="M49.7,29.7c0.8-1,1.4-1.8,1.4-1.8C50.9,28.6,50.3,29.4,49.7,29.7C49.8,29.8,49.7,29.7,49.7,29.7z"/>
		<path class="st0" d="M11.6,20c0.1,0.7,0.3,1.3,0.4,2c-0.3-0.2-0.3-0.4-0.5-1.5C11.4,20.3,11.3,20.2,11.6,20z"/>
		<path class="st0" d="M26.2,20.1c0.1,0.7,0.3,1.5,0.3,2.2c0,0-0.1,0-0.1,0c-0.1-0.7-0.2-1.5-0.3-2.2C26.1,20.1,26.1,20.1,26.2,20.1
			z"/>
		<path class="st0" d="M23,22c-0.1-0.7-0.2-1.4-0.3-2.2c0.3,0.2,0.4,1.2,0.4,1.5C23.1,21.5,23.3,21.8,23,22z"/>
		<path class="st0" d="M10,20.5c0.1,0.7,0.2,1.4,0.3,2.2c-0.2-0.2-0.2-0.2-0.3-1.1c0-0.4-0.1-0.7-0.1-1.1C9.9,20.5,9.9,20.5,10,20.5
			z"/>
		<path class="st0" d="M51.9,31.2c0.5-0.6,0.9-1.3,1.4-1.9C53.1,30,52.4,31,51.9,31.2z"/>
		<path class="st0" d="M32.2,24c0.1-1.5,0.1-0.9,0.1-2.4C32.6,22.2,32.5,23.5,32.2,24z"/>
		<path class="st0" d="M23.8,19.7c0.1,0,0.2,0,0.2,0.1c0.1,0.2,0.3,1.8,0.3,2.3C24,21.3,24.1,20.5,23.8,19.7z"/>
		<path class="st0" d="M23.5,21.8c-0.1-0.7-0.2-1.4-0.3-2.1C23.6,19.9,23.8,21,23.5,21.8z"/>
		<path class="st0" d="M11.1,22.3c-0.3-0.7-0.2-1.4-0.3-2.2c0.3,0.2,0.2-0.2,0.4,1.9C11.2,22.1,11.2,22.1,11.1,22.3z"/>
		<path class="st0" d="M50.4,30.2c0.4-0.6,0.8-1.1,1.2-1.7c0,0.3,0,0.3-0.5,1C50.9,29.7,50.8,30.1,50.4,30.2z"/>
		<path class="st0" d="M25.3,20c0.2,0.7,0.5,1.4,0.3,2.1C25.6,21.4,25.3,20.7,25.3,20z"/>
		<path class="st0" d="M53.4,31.9c0.4-0.6,0.8-1.2,1.2-1.9C54.6,30.6,54,31.4,53.4,31.9z"/>
		<path class="st0" d="M27.3,22.6c-0.1-0.7-0.2-1.3-0.3-2c0.3,0.6,0.4,1.3,0.4,2C27.3,22.6,27.3,22.6,27.3,22.6z"/>
		<path class="st0" d="M14.1,21.8c-0.1-0.6-0.2-1.2-0.4-1.9c0,0,0.1,0,0.1,0c0,0,0.1,0.1,0.1,0.1c0.1,0.6,0.3,1.1,0.3,1.7
			C14.1,21.8,14.1,21.8,14.1,21.8z"/>
		<path class="st0" d="M52.2,28.7c-0.1,0.5-0.8,1.5-1.2,1.7C51.4,29.9,51.8,29.3,52.2,28.7z"/>
		<path class="st0" d="M24.8,19.7c0.1,0.7,0.2,1.4,0.4,2.2C24.9,21.6,24.6,20.2,24.8,19.7z"/>
		<path class="st0" d="M52.8,29c-0.1,0.6-0.7,1.5-1.3,1.9C51.9,30.2,52.4,29.6,52.8,29z"/>
		<path class="st0" d="M12.6,21.9c-0.2-0.6-0.3-1.3-0.3-1.9c0,0,0.1,0,0.1,0c0.1,0.6,0.2,1.3,0.3,1.9C12.7,21.9,12.6,21.9,12.6,21.9
			z"/>
		<path class="st0" d="M15.2,20c0.1,0.6,0.4,1.3,0.4,1.9C15.3,21.3,15.2,20.7,15.2,20z"/>
		<path class="st0" d="M22.6,21.8c-0.1-0.1-0.2-0.2-0.2-0.3c0-0.5-0.2-1-0.2-1.5C22.5,20.3,22.7,21.4,22.6,21.8z"/>
		<path class="st0" d="M29.7,23.3c-0.1-0.7-0.1-1.3-0.1-1.9C29.8,21.9,29.9,22.8,29.7,23.3z"/>
		<path class="st0" d="M13.3,21.7c-0.1-0.6-0.2-1.2-0.4-1.8C13.2,20.1,13.4,21.1,13.3,21.7z"/>
		<path class="st0" d="M49.2,29c0.1-0.3,0.8-1.3,1-1.4C50.1,28,49.7,28.6,49.2,29z"/>
		<path class="st0" d="M14.6,19.9c0.1,0.6,0.4,1.2,0.3,1.8C14.7,21.2,14.5,20.6,14.6,19.9z"/>
		<path class="st0" d="M49.4,27.3c-0.3,0.5-0.6,1.1-1.2,1.3c0.4-0.5,0.7-0.9,1.1-1.4C49.3,27.3,49.3,27.3,49.4,27.3z"/>
		<path class="st0" d="M30.6,23.5c0-0.6-0.1-1.3-0.1-1.9c0,0,0.1,0,0.1,0C30.7,22.2,30.8,22.8,30.6,23.5z"/>
		<path class="st0" d="M31.5,23.5c0-0.7,0-1.3,0-2C31.8,21.8,31.7,22.9,31.5,23.5z"/>
		<path class="st0" d="M42.2,25.5c0.2-0.5,0.3-1.1,0.5-1.6C42.8,24.3,42.6,25.1,42.2,25.5z"/>
		<path class="st0" d="M33.7,22.7c0.2,0.8,0.2,1.4-0.1,1.7C33.7,23.8,33.7,23.2,33.7,22.7z"/>
		<path class="st0" d="M32.9,24.1c0.1-1.4,0.1-1.4,0.2-1.7c0.1,0.6,0.1,1.1,0,1.7C33,24.1,32.9,24.1,32.9,24.1z"/>
		<path class="st0" d="M38.6,23.3c-0.1,0.5-0.1,0.9-0.5,1.3c0.1-0.5,0.2-0.9,0.3-1.4C38.5,23.2,38.5,23.2,38.6,23.3z"/>
		<path class="st0" d="M39.5,24.9c0.2-0.5,0.3-0.9,0.5-1.4C40.1,24,39.9,24.5,39.5,24.9z"/>
		<path class="st0" d="M40.7,23.6c-0.1,0.5-0.2,1-0.3,1.4c-0.2-0.5,0-1,0.1-1.5C40.6,23.5,40.7,23.6,40.7,23.6z"/>
		<path class="st0" d="M28.7,23c0-0.6-0.1-1.1-0.1-1.7c0,0,0.1,0,0.1,0c0.1,0.6,0.1,1.1,0.2,1.7C28.9,23,28.8,23,28.7,23z"/>
		<path class="st0" d="M47.8,28.2c0.2-0.4,0.5-0.7,0.8-1.2C48.5,27.4,48.2,28,47.8,28.2z"/>
		<path class="st0" d="M42.2,23.9c-0.1,0.5-0.2,1-0.5,1.4c-0.1-0.3-0.2,0,0.4-1.5C42.1,23.9,42.1,23.9,42.2,23.9z"/>
		<path class="st0" d="M37.8,23.2c0,0.5-0.1,0.9-0.4,1.3c0.1-0.4,0.2-0.9,0.3-1.3C37.7,23.2,37.8,23.2,37.8,23.2z"/>
		<path class="st0" d="M37,23.3c-0.1,0.5-0.1,1-0.4,1.4C36.7,24.2,36.7,23.7,37,23.3z"/>
		<path class="st0" d="M39,24.6c0.1-0.7,0.2-1,0.5-1.3C39.4,23.8,39.3,24.2,39,24.6z"/>
		<path class="st0" d="M40.9,25c0.2-0.5,0.3-1,0.5-1.4C41.4,24.1,41.3,24.6,40.9,25z"/>
		<path class="st0" d="M34.5,24.7c0-0.4,0-0.8,0.1-1.2c0.1,0,0.1,0,0.2,0c0,0.4,0,0.8-0.1,1.2C34.6,24.7,34.6,24.7,34.5,24.7z"/>
		<path class="st0" d="M44.2,24.6c-0.1,0.4-0.2,0.9-0.4,1.3c0,0-0.1,0-0.1,0c0.1-0.4,0.3-0.9,0.4-1.3C44.1,24.5,44.2,24.6,44.2,24.6
			z"/>
		<path class="st0" d="M36,24.5c0.1-0.4,0.1-0.8,0.2-1.1C36.3,23.9,36.2,24.2,36,24.5z"/>
		<path class="st0" d="M16.7,21.6c-0.1-0.4-0.1-0.9-0.2-1.3c0.3,0.4,0.3,0.8,0.3,1.3C16.8,21.6,16.8,21.6,16.7,21.6z"/>
		<path class="st0" d="M46.8,26.7c-0.1,0.6-0.2,0.8-0.7,0.9C46.4,27.2,46.6,27,46.8,26.7z"/>
		<path class="st0" d="M17.4,20.5c0.1,0.3,0.1,0.7,0.2,1c-0.4-0.3-0.3-0.6-0.3-1C17.3,20.5,17.4,20.5,17.4,20.5z"/>
		<path class="st0" d="M47,27.9c0.2-0.3,0.4-0.6,0.7-1C47.6,27.4,47.5,27.6,47,27.9z"/>
		<path class="st0" d="M16.1,21.5c-0.2-0.4-0.3-0.8-0.2-1.2C16.1,20.7,16.3,21,16.1,21.5z"/>
		<path class="st0" d="M18.1,20.4c0.1,0.4,0.3,0.7,0.1,1.1c-0.1-0.4-0.1-0.7-0.2-1.1C18,20.5,18.1,20.4,18.1,20.4z"/>
		<path class="st0" d="M46.1,26.6c-0.2,0.2-0.3,0.5-0.5,0.8c-0.1-0.1-0.1-0.1-0.1-0.1C45.6,26.9,45.8,26.7,46.1,26.6
			C46,26.5,46.1,26.6,46.1,26.6z"/>
		<path class="st0" d="M18.9,21.5c-0.1-0.3-0.2-0.6,0-1c0,0.3,0.1,0.6,0.1,1C19,21.5,18.9,21.5,18.9,21.5z"/>
		<path class="st0" d="M44.1,26.6c0.2-0.4,0.3-0.6,0.4-1C44.6,26,44.5,26.2,44.1,26.6z"/>
		<path class="st0" d="M21.7,20.7c0.3,0.2,0.2,0.5,0.2,0.8c0,0-0.1,0-0.1,0c-0.1-0.3-0.1-0.5-0.2-0.8C21.6,20.8,21.7,20.8,21.7,20.7
			z"/>
		<path class="st0" d="M35.3,24.6c0-0.3,0-0.5,0.1-0.8c0.3,0.3,0.1,0.5,0.1,0.8C35.4,24.6,35.4,24.6,35.3,24.6z"/>
		<path class="st0" d="M44.9,26.9c-0.1-0.3,0-0.5,0.3-0.5C45.2,26.6,45,26.8,44.9,26.9z"/>
		<path class="st0" d="M20.7,21c0,0.2,0.1,0.4,0.1,0.6C20.4,21.4,20.4,21.3,20.7,21z"/>
		<path class="st0" d="M20,21c0.3,0.2,0.2,0.4,0.2,0.6C20,21.4,20,21.2,20,21z"/>
		<path class="st0" d="M19.6,21c0,0.2,0.1,0.4,0.1,0.6c0,0-0.1,0-0.1,0C19.4,21.4,19.4,21.2,19.6,21z"/>
		<path class="st0" d="M11.9,26.5c-0.4,1.7-2.2,0.9-2-0.2C10.2,25,12.1,25.5,11.9,26.5z M10.1,26.3c-0.2,0.9,1.2,1.4,1.4,0.4
			C11.8,25.7,10.3,25.4,10.1,26.3z"/>
		<path class="st0" d="M26.5,39.9c-0.3-0.1-0.4-0.4-0.5-0.6l0,0c0.2,0.1,0.3,0.3,0.5,0.4C26.5,39.8,26.5,39.9,26.5,39.9z"/>
		<path class="st0" d="M21,46.2c-0.1,0.1-0.1,0.3-0.2,0.4c-1,1.5-1,1.6-1.2,1.5c0,0,0,0,0,0C21.1,46,20.7,46.5,21,46.2L21,46.2z"/>
		<path class="st0" d="M19.1,45.1c-0.2,0.3-0.5,0.6-0.7,0.9c0,0,0,0-0.1,0C18.5,45.6,18.7,45.3,19.1,45.1C19,45,19,45,19.1,45.1z"/>
		<path class="st0" d="M17.9,45.2c-0.2,0.3-0.3,0.6-0.5,1C17.5,45.8,17.6,45.4,17.9,45.2C17.9,45.2,17.9,45.2,17.9,45.2z"/>
		<path class="st0" d="M20.5,45.5c0-0.4,0.3-0.6,0.6-0.8l0,0C20.9,44.9,20.7,45.2,20.5,45.5L20.5,45.5z"/>
		<path class="st0" d="M19.9,46.3c-0.2,0.2-0.3,0.4-0.5,0.7c0,0-0.1,0-0.1-0.1C19.5,46.7,19.6,46.4,19.9,46.3
			C19.8,46.2,19.8,46.2,19.9,46.3z"/>
		<path class="st0" d="M16.9,45.7c-0.1,0.2-0.2,0.4-0.3,0.7C16.6,46.1,16.7,45.8,16.9,45.7L16.9,45.7z"/>
		<path class="st0" d="M19.9,44.7c0.1,0.3-0.2,0.4-0.3,0.6C19.7,45.1,19.8,44.9,19.9,44.7C20,44.7,19.9,44.7,19.9,44.7z"/>
		<path class="st0" d="M20.5,45.4c-0.1,0.1-0.2,0.3-0.3,0.4C20.2,45.7,20.2,45.5,20.5,45.4C20.5,45.5,20.5,45.4,20.5,45.4z"/>
		<path class="st0" d="M19.4,48.7c-0.1,0.1-0.2,0.2-0.3,0.3C19.1,48.9,19.1,48.6,19.4,48.7L19.4,48.7z"/>
		<path class="st0" d="M19.4,48.7c0-0.3,0.1-0.5,0.3-0.6c0,0,0,0,0,0C19.6,48,19.4,48.7,19.4,48.7z"/>
		<path class="st0" d="M36.5,42.6c0.3-1.7,0.6-3.5,0.8-5.2C37.4,37.7,36.9,41.2,36.5,42.6z"/>
		<path class="st0" d="M17.4,29.3c-0.2-0.8-0.5-1.5-0.7-2.3c0,0,0.1,0,0.1,0C17.1,27.7,17.2,28.5,17.4,29.3z"/>
		<path class="st0" d="M16,26.7c0.2,0.5,0.5,1,0.8,2.1C16.5,28.2,16.2,27.5,16,26.7L16,26.7z"/>
		<path class="st0" d="M18.1,27.6c0.6,1.4,0.4,0.9,0.7,2.1C18.5,29.3,18.1,28.1,18.1,27.6L18.1,27.6z"/>
		<path class="st0" d="M17.1,26.4c0.1,0.3,0.5,1,0.7,1.8C17.4,27.7,17.2,27.1,17.1,26.4L17.1,26.4z"/>
		<path class="st0" d="M14.5,30.1c-0.4-0.5-0.7-1-0.8-1.6l0,0C13.9,29.1,14.2,29.6,14.5,30.1L14.5,30.1z"/>
		<path class="st0" d="M15.9,28.3c0.3,0,0.6,1.2,0.6,1.5C16.3,29.3,16.1,28.8,15.9,28.3L15.9,28.3z"/>
		<path class="st0" d="M14.5,30.1c0.3,0.4,0.6,0.9,0.8,1.3C14.9,31.1,14.6,30.7,14.5,30.1L14.5,30.1z"/>
		<path class="st0" d="M15.3,28.1c0.2,0.4,0.4,0.9,0.6,1.3c0,0-0.1,0-0.1,0.1C15.7,29.1,15.5,28.6,15.3,28.1L15.3,28.1z"/>
		<path class="st0" d="M16.9,24.9c0.2,0.5,0.4,1,0.5,1.5C17.1,26,17,25.5,16.9,24.9z"/>
		<path class="st0" d="M14.5,27.8c0.2,0.4,0.4,0.7,0.6,1.1c0,0-0.1,0-0.1,0.1C14.9,28.5,14.5,28.2,14.5,27.8
			C14.5,27.8,14.5,27.8,14.5,27.8z"/>
		<path class="st0" d="M13.6,29.6c0.2,0.3,0.3,0.6,0.5,0.9c0,0-0.1,0-0.1,0c-0.2-0.3-0.3-0.6-0.5-0.9C13.5,29.7,13.6,29.7,13.6,29.6
			z"/>
		<path class="st0" d="M15.9,28.3c-0.1-0.4-0.3-0.8-0.4-1.3c0,0,0,0,0,0C16,28.2,15.9,27.9,15.9,28.3C15.9,28.3,15.9,28.3,15.9,28.3
			z"/>
		<path class="st0" d="M15.5,30.2c-0.1-0.2-0.2-0.4-0.3-0.6c0,0,0.1,0,0.1-0.1c0.1,0.2,0.2,0.4,0.3,0.6
			C15.6,30.1,15.6,30.1,15.5,30.2z"/>
		<path class="st0" d="M15.7,25.9c0.1,0.3,0.2,0.6,0.3,0.9l0,0C15.9,26.4,15.8,26.1,15.7,25.9L15.7,25.9z"/>
		<path class="st0" d="M16.9,25.8c0.1,0.2,0.1,0.4,0.2,0.6l0,0C16.9,26.3,16.8,26.1,16.9,25.8C16.9,25.8,16.9,25.8,16.9,25.8z"/>
		<path class="st0" d="M14.3,28.8c0.1,0.2,0.3,0.4,0.4,0.6l0,0C14.4,29.3,14.4,29,14.3,28.8C14.3,28.8,14.3,28.8,14.3,28.8z"/>
		<path class="st0" d="M14.4,31.1c0.1,0.1,0.2,0.3,0.3,0.4c0,0,0,0,0,0C14.5,31.4,14.4,31.3,14.4,31.1
			C14.4,31.1,14.4,31.1,14.4,31.1z"/>
		<path class="st0" d="M15.1,30.4c0.1,0.1,0.2,0.3,0.4,0.4c0,0-0.1,0-0.1,0.1C15.3,30.7,15.2,30.6,15.1,30.4L15.1,30.4z"/>
		<path class="st0" d="M18,29.1c0-0.1-0.1-0.3-0.1-0.4c0,0,0.1,0,0.1,0c0.1,0.1,0.1,0.3,0.2,0.4C18,29.1,18,29.1,18,29.1z"/>
		<path class="st0" d="M14.1,28.3c0.2,0.1,0.3,0.3,0.2,0.5c0,0,0,0,0,0C14.2,28.6,14.1,28.4,14.1,28.3L14.1,28.3z"/>
		<path class="st0" d="M15.1,30.4c-0.1-0.2-0.2-0.3-0.2-0.5c0,0,0,0,0,0C15.1,30,15.1,30.2,15.1,30.4L15.1,30.4z"/>
		<path class="st0" d="M14.7,29.4c0.1,0.2,0.1,0.4,0.2,0.5c0,0,0,0,0,0C14.7,29.7,14.6,29.6,14.7,29.4
			C14.7,29.3,14.7,29.4,14.7,29.4z"/>
		<path class="st0" d="M19.5,28.8c0.1,0.2,0.2,0.4,0.2,0.6C19.5,29.2,19.4,29,19.5,28.8z"/>
		<path class="st0" d="M23.3,33.1c0.3,0.3,0.3,0.6,0.8,0.6c-0.1,0.5-0.5,0.3-0.8-0.3C23.2,33.3,23.3,33.2,23.3,33.1z"/>
		<path class="st0" d="M23,30.9c0,0.4,0,0.8,0,1.2c-0.1-0.1-0.2-0.1-0.3-0.2C22.7,31.6,22.8,31.1,23,30.9z"/>
		<path class="st0" d="M25.6,28.5c-0.3,0.3-0.5,0.5-0.7,0.7C24.8,28.7,25.1,28.3,25.6,28.5z"/>
		<path class="st0" d="M22.9,30.2c-0.1-0.6,0-0.9,0.5-1.2c0.1,0.3-0.2,0.4-0.2,0.6C23.1,29.7,23,29.9,22.9,30.2z"/>
		<path class="st0" d="M25.6,34.3c-0.5,0.1-0.6-0.4-1-0.5c0.3-0.3,0.4,0.1,0.5,0.1c0.2,0,0.3,0.2,0.5,0.3
			C25.6,34.2,25.6,34.2,25.6,34.3z"/>
		<path class="st0" d="M27.4,34.5c-0.4,0.4-0.7,0.3-1.1,0C26.8,34.5,27.1,34.5,27.4,34.5z"/>
		<path class="st0" d="M30.4,33.7c0,0.5-0.3,0.9-0.8,1C29.9,34.3,30.1,34,30.4,33.7z"/>
		<path class="st0" d="M28.1,35.4c-0.4,0.2-0.7,0.2-1.1-0.2c0.4,0,0.7,0,1.1,0C28.1,35.3,28.1,35.4,28.1,35.4z"/>
		<path class="st0" d="M24,32.1c-0.5-0.3-0.5-0.6-0.4-1C23.9,31.2,23.8,31,24,32.1z"/>
		<path class="st0" d="M24.6,34.6c0.3,0.2,0.6,0.3,0.9,0.5C25.1,35.2,25,35.2,24.6,34.6z"/>
		<path class="st0" d="M25.9,29.9c0-0.5,0.1-0.6,0.8-0.6C26.3,29.5,26.1,29.7,25.9,29.9z"/>
		<path class="st0" d="M24.7,30.8c0.1-0.3,0.1-0.6,0.2-1c0.1,0.1,0.2,0.2,0.2,0.2c-0.1,0.3,0,0.6-0.2,0.8
			C24.8,30.8,24.8,30.8,24.7,30.8z"/>
		<path class="st0" d="M27,33.7c-0.4,0-0.7-0.1-0.9-0.4C26.4,33.3,26.8,33.2,27,33.7z"/>
		<path class="st0" d="M28,34.5c0.3-0.2,0.6-0.3,0.9-0.5C28.9,34.4,28.7,34.5,28,34.5z"/>
		<path class="st0" d="M24.2,29c-0.1,0.3-0.3,0.6-0.4,0.9c-0.2-0.2-0.2-0.2,0.2-1C24.1,28.9,24.1,29,24.2,29z"/>
		<path class="st0" d="M24.8,31.9c0.2,0.2,0.4,0.5,0.7,0.7c-0.1,0-0.2,0.1-0.3,0.1C24.9,32.5,24.8,32.3,24.8,31.9z"/>
		<path class="st0" d="M30,28.9c-0.2,0-0.2,0.1-0.3,0.1c-0.3-0.2-0.5-0.4-0.7-0.9C29.4,28.3,29.6,28.6,30,28.9z"/>
		<path class="st0" d="M31.2,31.9c0,0.3,0,0.7-0.4,1c0.1-0.3,0.2-0.7,0.2-1C31.1,31.9,31.1,31.9,31.2,31.9z"/>
		<path class="st0" d="M26.8,28.4c0.3-0.4,0.5-0.4,0.9-0.1C27.2,28.4,27.4,28.4,26.8,28.4z"/>
		<path class="st0" d="M30.5,29.3c0.5,0.2,0.4,0.5,0.4,0.8c0,0-0.1,0-0.1,0C30.7,29.9,30.6,29.6,30.5,29.3z"/>
		<path class="st0" d="M29.8,30.1c0.4,0.1,0.4,0.5,0.4,0.8C29.8,30.8,29.9,30.4,29.8,30.1z"/>
		<path class="st0" d="M28.8,32.2c0.2-0.9,0.1-0.6,0.2-0.8C29.2,31.8,29.1,32,28.8,32.2z"/>
		<path class="st0" d="M26.6,31.9c0.1,0,0.8-0.2,0.8-0.2C27.2,32.2,27.1,32.2,26.6,31.9z"/>
		<path class="st0" d="M25.7,27.7c-0.2,0.1-0.5,0.2-0.7,0.2C25,27.6,25.2,27.5,25.7,27.7z"/>
		<path class="st0" d="M27.7,33.5c0.2-0.2,0.4-0.4,0.7-0.6C28.4,33.4,28,33.5,27.7,33.5C27.7,33.6,27.7,33.5,27.7,33.5z"/>
		<path class="st0" d="M28.7,29.4c-0.2-0.1-0.4-0.2-0.7-0.4c0.3-0.2,0.5,0,0.7,0.1c0,0,0.1,0.2,0.1,0.2
			C28.8,29.4,28.8,29.4,28.7,29.4z"/>
		<path class="st0" d="M29.6,32.9c0.1-0.3,0.2-0.5,0.3-0.8c0,0,0.1,0,0.1,0c0,0.3-0.1,0.6-0.3,0.8C29.7,33,29.6,32.9,29.6,32.9z"/>
		<path class="st0" d="M26.2,31.6c-0.4-0.2-0.1-0.5-0.2-0.8C26.2,31,26.2,31,26.2,31.6z"/>
		<path class="st0" d="M27.7,27.3c0.4-0.1,0.4-0.1,0.7,0.4c-0.3-0.1-0.5-0.2-0.7-0.3C27.7,27.4,27.7,27.3,27.7,27.3z"/>
		<path class="st0" d="M26.6,30.4c0.2-0.5,0.5-0.3,0.6-0.2c0,0,0,0.1,0,0.1C27,30.3,26.9,30.3,26.6,30.4z"/>
		<path class="st0" d="M28.3,30.8c-0.3-0.1-0.2-0.3-0.2-0.6C28.5,30.3,28.3,30.6,28.3,30.8z"/>
		<path class="st0" d="M27.7,40.2c0.3-0.2,0.5-0.3,0.7-0.4c0.7-0.3,1.1,0.4,0.6,0.5C27.8,40.5,27.9,40.4,27.7,40.2z"/>
		<path class="st0" d="M29.3,41.1c0.2,0.3,0.1,0.5-0.1,0.7c-0.3-0.1-0.7-0.2-1.1-0.3C28,41,28.3,41.1,29.3,41.1z"/>
		<path class="st0" d="M27.9,42.3c0.8,0.1,1.2,0.1,1.2,0.4c0,0.1-0.1,0.2-0.2,0.3C28.6,43,28.2,42.8,27.9,42.3z"/>
		<path class="st0" d="M27.2,39.5c0.7-0.9,0.4-0.7,0.9-0.7c0,0.3,0.1,0.2-0.4,0.7C27.6,39.6,27.6,39.6,27.2,39.5z"/>
		<path class="st0" d="M26.6,45.3c-0.5-0.3-0.5-0.3-0.4-0.9c0.3,0,0.5,0.2,0.6,0.5C26.8,44.9,26.7,45.1,26.6,45.3z"/>
		<path class="st0" d="M27.9,44.6c-0.6,0.4-0.7,0.3-0.8-0.4C27.5,44,27.5,44,27.9,44.6z"/>
		<path class="st0" d="M27.8,43.3c0.3,0.1,0.6,0.2,0.9,0.2c-0.2,0.7-0.4,0.5-0.9-0.1C27.8,43.4,27.8,43.4,27.8,43.3z"/>
		<path class="st0" d="M25.9,38.2c-0.1,0.3,0,0.5-0.3,0.7c-0.1-0.2-0.3-0.3-0.4-0.5C25.4,38.2,25.6,38,25.9,38.2z"/>
		<path class="st0" d="M24.5,38.8c0.1-0.2,0.1-0.1,0.3-0.2c0.3,0.4,0.3,0.4,0.2,0.9C24.7,39.3,24.7,39.3,24.5,38.8z"/>
		<path class="st0" d="M26.4,41c0.2,0.4,0.4,0.8,0.6,1.3C26.8,42,26.6,41.5,26.4,41L26.4,41z"/>
		<path class="st0" d="M26.5,42c0.2,0.3,0.3,0.5,0.5,0.8C26.4,42.4,26.5,42,26.5,42z"/>
		<path class="st0" d="M26.1,41.1c0.3,0.2,0.4,0.5,0.4,0.9l0,0C26.4,41.7,26.2,41.4,26.1,41.1L26.1,41.1z"/>
		<path class="st0" d="M26.1,41.1c-0.2-0.2-0.2-0.4-0.3-0.6c0,0,0.1,0,0.1,0C25.9,40.7,26,40.9,26.1,41.1L26.1,41.1z"/>
		<path class="st0" d="M26.5,41c-0.1-0.2-0.2-0.4-0.4-0.6c0,0,0.1,0,0.1-0.1C26.4,40.5,26.4,40.7,26.5,41L26.5,41z"/>
		<path class="st0" d="M36.6,50.2c0.2,0.4,0.2,0.8,0,1.3C36.4,51.2,36.4,51.2,36.6,50.2z"/>
		<path class="st0" d="M34.3,54.3c-0.3,0.5-0.8,0.4-1.2,0.4c0,0,0-0.1,0-0.1C33.4,54.4,33.8,54.4,34.3,54.3z"/>
		<path class="st0" d="M32,48.1c-0.4,0.2-0.8,0.3-1.1,0.4C31,48.1,31.4,47.9,32,48.1z"/>
		<path class="st0" d="M30.1,52.2c-0.5-0.2-0.5-0.6-0.6-1c0,0,0.1-0.1,0.2-0.1C29.9,51.4,30,51.8,30.1,52.2z"/>
		<path class="st0" d="M35.9,52.4c0,0.6-0.4,1.1-0.8,1.2C35.4,53.3,35.6,52.9,35.9,52.4z"/>
		<path class="st0" d="M29.9,48.1c0-0.6,0.2-0.7,0.8-0.7C30.6,47.8,30.1,47.7,29.9,48.1z"/>
		<path class="st0" d="M33.1,49.2c-0.5,0-0.8-0.1-1.2-0.1c0-0.1,0-0.1,0-0.2C33.2,48.9,32.9,48.9,33.1,49.2z"/>
		<path class="st0" d="M35.2,51.6c0.2-0.9,0.2-0.5,0.1-1.3C35.7,50.9,35.7,51.2,35.2,51.6z"/>
		<path class="st0" d="M28.7,51.6c0.1,0.3,0.2,0.6,0.3,0.9C28.5,52.5,28.4,52.2,28.7,51.6z"/>
		<path class="st0" d="M31.7,52.7c0.3,0.1,0.7,0.1,1.1,0.5C32.3,53.2,31.9,53.1,31.7,52.7z"/>
		<path class="st0" d="M29.5,53.1c0.3,0.2,0.6,0.4,1,0.7C29.9,53.8,29.6,53.6,29.5,53.1z"/>
		<path class="st0" d="M28.9,48.2c-0.2,0.4-0.3,0.7-0.5,1C28.2,48.8,28.4,48.4,28.9,48.2z"/>
		<path class="st0" d="M34.4,50.5c-0.1,0-0.2-0.1-0.2-0.1c-0.1-0.3-0.2-0.6,0-1C34.3,49.8,34.4,50.1,34.4,50.5
			C34.4,50.4,34.4,50.5,34.4,50.5z"/>
		<path class="st0" d="M28.9,50.8c-0.3-0.3-0.1-1,0.3-1C29.1,50.2,29,50.5,28.9,50.8z"/>
		<path class="st0" d="M33.5,53.2c0.4-0.2,0.7-0.4,1-0.6C34.3,53,34,53.3,33.5,53.2z"/>
		<path class="st0" d="M35.5,49.3c-0.4-0.2-0.4-0.5-0.5-0.9c0,0,0.1,0,0.1-0.1c0.2,0.3,0.4,0.6,0.5,0.8
			C35.6,49.3,35.6,49.3,35.5,49.3z"/>
		<path class="st0" d="M31.1,53.5c0.4,0,0.6,0.3,0.9,0.4C31.5,54,31.4,53.9,31.1,53.5z"/>
		<path class="st0" d="M36.1,48.2c0.4,0.1,0.5,0.4,0.6,0.7C36.3,48.8,36.2,48.4,36.1,48.2z"/>
		<path class="st0" d="M32.4,52.1c0.3-0.1,0.5-0.3,0.8-0.4C33.1,52.1,32.9,52.2,32.4,52.1z"/>
		<path class="st0" d="M33.4,50.9c-0.2-0.3-0.4-0.5-0.6-0.7C33.3,50.1,33.4,50.2,33.4,50.9z"/>
		<path class="st0" d="M33,48.1c0.5-0.2,0.8-0.1,1,0.2C33.6,48.2,33.3,48.1,33,48.1z"/>
		<path class="st0" d="M31,49.5c-0.2,0.3-0.4,0.6-0.6,0.8C30.4,49.9,30.5,49.8,31,49.5z"/>
		<path class="st0" d="M30.6,46.6c-0.2,0.3-0.5,0.2-0.8,0.2C30,46.5,30.3,46.7,30.6,46.6z"/>
		<path class="st0" d="M32.1,49.7c0,0.5-0.4,0.2-0.6,0.5C31.6,49.8,31.6,49.8,32.1,49.7z"/>
		<path class="st0" d="M31.3,51.6c0.1-0.3,0.1-0.5,0.1-0.8C31.6,51.1,31.6,51.3,31.3,51.6z"/>
		<path class="st0" d="M32.2,47.1c0.3-0.2,0.6-0.2,0.9,0C32.8,47.2,32.6,47.1,32.2,47.1z"/>
		<path class="st0" d="M35.1,47.5c-0.2-0.1-0.4-0.1-0.6-0.2c0.3-0.2,0.5-0.1,0.7,0.1C35.1,47.4,35.1,47.5,35.1,47.5z"/>
		<path class="st0" d="M22.8,53.8c0.6,0,1,0.3,1.4,0.9C23.3,54.5,24.1,54.8,22.8,53.8z"/>
		<path class="st0" d="M21.8,53.8c-0.5,0.2-0.8,0.3-1.2,0.4C20.7,53.7,21.1,53.5,21.8,53.8z"/>
		<path class="st0" d="M22.1,58.3c-0.2,0.4-0.4,0.4-1.2,0.3C21.4,58.4,21.7,58.3,22.1,58.3z"/>
		<path class="st0" d="M23.6,56.2c-0.2-0.3-0.4-0.6-0.6-0.9c0.4,0,0.6,0.3,0.8,0.5C23.8,56,23.8,56,23.6,56.2z"/>
		<path class="st0" d="M25.1,57.5c0.1,0.4,0.1,0.7-0.3,1C24.8,58.1,24.9,57.8,25.1,57.5z"/>
		<path class="st0" d="M21.6,59.5c-0.3,0.3-0.7,0.3-1.1-0.1C20.9,59.4,21.2,59.4,21.6,59.5z"/>
		<path class="st0" d="M19.2,54.9c0-0.1-0.1-0.2-0.1-0.3c0.1-0.3,0.3-0.5,0.7-0.5c-0.2,0.3-0.3,0.5-0.5,0.8
			C19.3,54.9,19.2,54.9,19.2,54.9z"/>
		<path class="st0" d="M24,57c0.3,0.4,0.2,0.8-0.3,1.1C23.8,57.7,23.9,57.4,24,57z"/>
		<path class="st0" d="M20.3,55.1c-0.2,0.4-0.3,0.6-0.5,0.9C19.7,55.5,19.7,55.4,20.3,55.1z"/>
		<path class="st0" d="M19.9,58.9c-0.6,0-0.6,0-0.8-0.5C19.5,58.4,19.7,58.7,19.9,58.9z"/>
		<path class="st0" d="M20.6,56.9c-0.2-0.3-0.1-0.7,0.2-1c0,0.3,0,0.7,0,1C20.8,56.9,20.7,56.9,20.6,56.9z"/>
		<path class="st0" d="M23.5,58.7c-0.1,0.5-0.3,0.7-0.9,0.6C22.9,59.1,23.2,58.9,23.5,58.7z"/>
		<path class="st0" d="M19.8,57c0.2,0.3,0.4,0.6,0.5,0.8C19.8,57.8,19.5,57.4,19.8,57z"/>
		<path class="st0" d="M22.8,53.1c-0.3,0.1-0.6,0.1-0.9,0.2c-0.1-0.2,0-0.3,0.2-0.3C22.3,52.9,22.5,52.8,22.8,53.1z"/>
		<path class="st0" d="M24.8,56.7c0-0.3,0-0.6-0.1-0.9c0,0,0.1,0,0.1,0c0.1,0.3,0.3,0.6,0.1,0.9C24.9,56.7,24.8,56.7,24.8,56.7z"/>
		<path class="st0" d="M21.9,55c-0.3,0-0.5,0-0.8,0C21.4,54.7,21.6,54.7,21.9,55z"/>
		<path class="st0" d="M22.3,57c-0.1-0.3-0.1-0.6-0.1-0.9C22.5,56.4,22.5,56.5,22.3,57z"/>
		<path class="st0" d="M18.4,56.1c-0.1-0.3,0-0.6,0.2-0.9C18.7,55.6,18.5,55.8,18.4,56.1z"/>
		<path class="st0" d="M19.2,55.9c0.2,0.6,0.1,0.6-0.2,0.8C18.9,56.4,18.9,56.2,19.2,55.9z"/>
		<path class="st0" d="M21.8,57.4c-0.3,0.1-0.5,0-0.7-0.3C21.4,57,21.6,57.3,21.8,57.4z"/>
		<path class="st0" d="M24.9,54.6c-0.3,0-0.4-0.1-0.5-0.4C24.8,54.1,24.7,54.5,24.9,54.6z"/>
		<path class="st0" d="M22.8,57.6c0.1-0.2,0.2-0.4,0.3-0.7c0.2,0.3,0.1,0.5,0,0.7C23,57.6,22.9,57.6,22.8,57.6z"/>
		<path class="st0" d="M21.6,56c0,0.2,0,0.4-0.1,0.7C21.3,56.3,21.3,56.3,21.6,56z"/>
		<path class="st0" d="M20.4,53.2c0.2,0,0.3,0,0.5,0.1c0,0,0,0.1,0,0.1c-0.2,0-0.3,0-0.5,0C20.4,53.4,20.4,53.3,20.4,53.2z"/>
		<path class="st0" d="M29.2,61.1c-0.1-0.4-0.1-0.9-0.2-1.3c0,0,0.1,0,0.1,0C29.2,60.3,29.5,60.7,29.2,61.1
			C29.2,61.1,29.2,61.1,29.2,61.1z"/>
		<path class="st0" d="M31.1,58.8c0.1-0.3,0.2-0.7,0.2-1C31.4,58.2,31.3,58.5,31.1,58.8L31.1,58.8z"/>
		<path class="st0" d="M48.3,35.1c0,0.6-0.2,1.1-0.5,1.6c-0.4,0.6-1.3,0.8-2,0.6c-1.5-0.3-1.9-2.4-1-3.5
			C45.5,32.8,48.4,33,48.3,35.1z M47.8,35.9c0.1-0.2,0.3-1.7-0.7-2.1c-0.5-0.2-1-0.3-1.6-0.1c-0.1,0-0.2,0.1-0.2,0.2
			C43.2,36.2,47.1,38.1,47.8,35.9z"/>
		<path class="st0" d="M44,31.1c0,0.8-1,1.5-1.7,1.1c-1.3-0.8-0.7-2.4,0.5-2.4C43.8,29.8,44.3,30.2,44,31.1z M43.5,30.4
			c-0.2-0.1-0.5-0.2-0.7-0.2c-2,0.2,0.1,2.8,0.8,0.9C43.8,30.8,43.8,30.5,43.5,30.4z"/>
		<path class="st0" d="M14.4,42.6c0.3-1.4,2.1-0.7,2,0.2c-0.1,0.5-0.7,1-1.2,0.9C14.8,43.6,14.4,43.1,14.4,42.6z M15.5,42.1
			c-0.4-0.1-0.8,0.1-0.9,0.5c0,0.3,0.4,0.8,0.7,0.9c0.3,0.1,0.7-0.3,0.8-0.7C16.1,42.4,15.9,42.1,15.5,42.1z"/>
		<path class="st0" d="M30.5,64.5c-0.1,0.8-1.6,0.6-1.4-0.3c0.1-0.5,0.4-0.7,0.8-0.7C30.3,63.6,30.6,64,30.5,64.5z M29.9,63.8
			c-0.3,0-0.5,0.1-0.5,0.4c0,0.3,0.1,0.4,0.3,0.5c0.2,0.1,0.5-0.1,0.5-0.4C30.3,64,30.1,63.8,29.9,63.8z"/>
		<path class="st0" d="M25.7,50.3c0.5,0.4,0.4,0.9,0.2,1.4c-0.2,0.1-1.1,0.4-1.3-0.3C24.3,50.3,25.3,50.3,25.7,50.3
			C25.7,50.3,25.7,50.3,25.7,50.3z M24.9,51c-0.2,0.7,0.7,0.7,0.8,0c0-0.2,0-0.4-0.2-0.4C25.2,50.5,24.9,50.7,24.9,51z"/>
		<path class="st0" d="M31.4,60.9c0.2-1.1,1.8-0.8,1.6,0.4c-0.1,0.4-0.4,0.5-1,0.5C31.5,61.8,31.3,61.4,31.4,60.9z M31.7,61
			c-0.1,0.4,0,0.6,0.3,0.6c0.7,0.1,0.9-0.9,0.2-1.1C32,60.4,31.7,60.6,31.7,61z"/>
		<path class="st0" d="M38.5,45.8c-0.1,0.4-0.3,0.7-0.7,0.6c-0.4-0.1-0.7-0.5-0.6-0.9C37.3,44.9,38.6,44.8,38.5,45.8z M38,45.3
			c-0.6-0.1-0.7,0.7-0.2,0.8C38.3,46.1,38.4,45.4,38,45.3z"/>
	</g>
	<g>
		<path class="st0" d="M36.1,6.1c0.7,0.8-2.4,2.3-4.8,5.1c-0.5,0.6-1.1,0-0.6-0.4C31.3,10.2,35.8,6.4,36.1,6.1z"/>
		<path class="st0" d="M16.9,14.3c-0.7,0.1-0.8,0-0.6-0.7c0.9-3.6,0.9-4.5,1.3-4.4c0.2,0.1,0.4,0.4,0.3,0.8
			C16.8,14.7,17,14.1,16.9,14.3z"/>
		<path class="st0" d="M21,13.6c-0.6-0.3-0.7-0.4-0.4-0.9c1.5-2.4,2.1-3.6,2.4-3.4c0.2,0.1,0.3,0.4,0.2,0.7
			C20.9,13.9,21.2,13.4,21,13.6z"/>
		<path class="st0" d="M12.3,10c0.2,0.3,0.3,0.4,0.4,0.6c1.4,4,1.3,3.9,1,4c-0.2,0.1-0.5,0-0.6-0.3C11.7,9.7,11.7,10.6,12.3,10z"/>
		<path class="st0" d="M7.7,12c0.3-0.5,0.4-0.6,0.8-0.2c2.7,2.6,2.9,2.7,2.5,3C10.5,15.2,10.5,15,7.7,12z"/>
		<path class="st0" d="M15.1,9.6c-0.6,0.1-0.7,0.1-0.7-0.5c0.3-5.2,0.2-4.2,0.3-5C15.4,4.3,15.2,4.3,15.1,9.6z"/>
		<path class="st0" d="M26.4,11c-1.8,2.4-1.8,2.6-2.5,2.5c-0.6-0.1,0.1-0.8,1.5-2.3C25.8,10.8,26.3,10.5,26.4,11z"/>
		<path class="st0" d="M26,5.7c-1,1.7-1.6,3-2.1,2.5c-0.1-0.1-0.1-0.3-0.1-0.4C25.7,4.7,25.6,4.8,26,5.7z"/>
		<path class="st0" d="M29.7,7.8c-1.3,1.5-1.6,1.9-2.1,1.5c-0.3-0.2-0.1-0.4,1.5-1.8C29.4,7.2,29.4,7.2,29.7,7.8z"/>
		<path class="st0" d="M9.5,3c0.9-0.4,0.7-0.2,1.3,1.6c0.2,0.7-0.5,0.7-0.7,0.2C10,4.5,9.8,3.9,9.5,3z"/>
		<path class="st0" d="M11.5,8.8c-0.3-0.4-0.2,0.1-0.7-2c-0.1-0.5,0.6-0.5,0.7-0.1C12,8.8,12.2,8.5,11.5,8.8z"/>
		<path class="st0" d="M18.8,4.4c-0.9,0-0.7-0.1-0.4-1.9c0.1-0.7,0.7-0.1,0.7,0.3C19,3.4,18.9,3.9,18.8,4.4z"/>
		<path class="st0" d="M29.6,12c0.8,0.2,0.1,0.8-0.7,1.6c-0.3,0.3-0.9-0.2-0.5-0.6C29.6,11.9,29.2,12.2,29.6,12z"/>
		<path class="st0" d="M3.3,7C3.5,6.8,3.8,6.6,4,6.8c0.4,0.4,0.9,0.8,1.2,1.4C4.7,8.7,4.7,8.5,3.3,7z"/>
		<path class="st0" d="M17.9,6c0.9,0.3,0.7,0.3,0.5,1.4c-0.1,0.6-0.2,0.6-0.8,0.2C17.7,7.1,17.8,6.6,17.9,6z"/>
		<path class="st0" d="M7,10.5c-0.4,0-0.3,0.3-1.4-0.9c0,0,0-0.3,0.1-0.3C6.2,9,6.9,10,7,10.5z"/>
		<path class="st0" d="M14.6,10.9c0.5-0.2,0.6,0.4,0.5,1c0,0.1-0.2,0.2-0.3,0.2C14.4,12.1,14.5,11.3,14.6,10.9z"/>
	</g>
</g>
</svg>
